<svg width="1054" height="1154" viewBox="0 0 1054 1154" fill="none" xmlns="http://www.w3.org/2000/svg">
<path d="M884.703 425.078L1048.54 399.362" stroke="black" stroke-width="62.2164"/>
<path d="M833.479 274.308L935.929 213.958" stroke="black" stroke-width="62.2164"/>
<path d="M728.955 162.734L797.807 13" stroke="black" stroke-width="62.2164"/>
<path d="M533.181 141.165L532.351 22.3314" stroke="black" stroke-width="62.2164"/>
<path d="M343.213 170.2L287.84 13" stroke="black" stroke-width="62.2164"/>
<path d="M212.558 272.651L108.242 215.826" stroke="black" stroke-width="62.2164"/>
<path d="M166.726 416.575L6 389.407" stroke="black" stroke-width="62.2164"/>
<path d="M383.239 862.46C383.239 755.448 317.082 665.649 281.411 599.285C261.594 562.434 251.192 521.256 251.133 479.415C251.133 338.598 379.921 224.327 520.737 224.327" stroke="black" stroke-width="62.2164"/>
<path d="M658.236 862.46C658.236 755.448 724.392 665.649 760.063 599.285C779.881 562.434 790.282 521.256 790.342 479.415C790.342 338.598 661.554 224.327 520.737 224.327" stroke="black" stroke-width="62.2164"/>
<path d="M678.145 856.653H373.492C349.21 856.653 329.525 876.338 329.525 900.62V900.827C329.525 925.109 349.21 944.793 373.492 944.793H678.145C702.427 944.793 722.111 925.109 722.111 900.827V900.62C722.111 876.338 702.427 856.653 678.145 856.653Z" stroke="black" stroke-width="62.2164"/>
<path d="M654.088 944.586H397.549C373.267 944.586 353.583 964.27 353.583 988.552V988.759C353.583 1013.04 373.267 1032.73 397.549 1032.73H654.088C678.37 1032.73 698.054 1013.04 698.054 988.759V988.552C698.054 964.27 678.37 944.586 654.088 944.586Z" stroke="black" stroke-width="62.2164"/>
<path d="M592.701 1032.73V1050.15C593.427 1059.36 592.24 1068.62 589.214 1077.35C586.187 1086.08 581.387 1094.09 575.115 1100.88C568.843 1107.67 561.235 1113.08 552.769 1116.78C544.303 1120.49 535.163 1122.4 525.922 1122.4C516.681 1122.4 507.541 1120.49 499.075 1116.78C490.609 1113.08 483 1107.67 476.728 1100.88C470.457 1094.09 465.656 1086.08 462.63 1077.35C459.604 1068.62 458.416 1059.36 459.143 1050.15V1032.73" stroke="black" stroke-width="62.2164"/>
<path d="M349.02 463.862C350.055 443.445 355.105 423.433 363.881 404.969C372.657 386.506 384.986 369.953 400.164 356.258C415.342 342.564 433.071 331.995 452.336 325.157C471.602 318.32 492.026 315.347 512.442 316.409" stroke="black" stroke-width="62.2164"/>
</svg>
