<svg width="2989" height="554" xmlns="http://www.w3.org/2000/svg" xmlns:xlink="http://www.w3.org/1999/xlink" xml:space="preserve" overflow="hidden"><g transform="translate(-242 -857)"><g><path d="M1276 940.322C1276 926.889 1286.89 916 1300.32 916L1645.68 916C1659.11 916 1670 926.889 1670 940.322L1670 1293.68C1670 1307.11 1659.11 1318 1645.68 1318L1300.32 1318C1286.89 1318 1276 1307.11 1276 1293.68Z" fill="#2F5597" fill-rule="evenodd" fill-opacity="1"/><rect x="743" y="926" width="371" height="377" fill="#222A35" fill-opacity="1"/><rect x="1320" y="1183" width="318" height="111" fill="#BF9000" fill-opacity="1"/><text fill="#FFFFFF" fill-opacity="1" font-family="Oracle Sans Tab,Oracle Sans Tab_MSFontService,sans-serif" font-style="normal" font-variant="normal" font-weight="400" font-stretch="normal" font-size="32" text-anchor="start" direction="ltr" writing-mode="lr-tb" unicode-bidi="normal" text-decoration="none" transform="matrix(1 0 0 1 1406.95 1229)">Key Value </text><text fill="#FFFFFF" fill-opacity="1" font-family="Oracle Sans Tab,Oracle Sans Tab_MSFontService,sans-serif" font-style="normal" font-variant="normal" font-weight="400" font-stretch="normal" font-size="32" text-anchor="start" direction="ltr" writing-mode="lr-tb" unicode-bidi="normal" text-decoration="none" transform="matrix(1 0 0 1 1411.54 1267)">Database</text><g><g><g><path d="M359.438 1026.87C359.438 1043.96 345.586 1057.81 328.5 1057.81 311.414 1057.81 297.563 1043.96 297.563 1026.87 297.563 1009.79 311.414 995.937 328.5 995.937 345.586 995.937 359.438 1009.79 359.438 1026.87Z" fill="#000000" fill-rule="nonzero" fill-opacity="1"/><path d="M524.438 1026.87C524.438 1043.96 510.586 1057.81 493.5 1057.81 476.414 1057.81 462.563 1043.96 462.563 1026.87 462.563 1009.79 476.414 995.937 493.5 995.937 510.586 995.937 524.438 1009.79 524.438 1026.87Z" fill="#000000" fill-rule="nonzero" fill-opacity="1"/><path d="M472.875 1176.06 472.875 1145.12C472.875 1140.31 470.813 1135.5 466.688 1132.75 458.438 1125.87 447.438 1121.06 436.438 1118.31 428.875 1116.25 419.938 1114.19 411 1114.19 402.75 1114.19 393.813 1115.56 385.563 1118.31 374.563 1121.06 364.25 1126.56 355.313 1132.75 351.188 1136.19 349.125 1140.31 349.125 1145.12L349.125 1176.06 472.875 1176.06Z" fill="#000000" fill-rule="nonzero" fill-opacity="1"/><path d="M441.938 1075C441.938 1092.09 428.086 1105.94 411 1105.94 393.914 1105.94 380.063 1092.09 380.063 1075 380.063 1057.91 393.914 1044.06 411 1044.06 428.086 1044.06 441.938 1057.91 441.938 1075Z" fill="#000000" fill-rule="nonzero" fill-opacity="1"/><path d="M549.188 1084.62C540.938 1077.75 529.938 1072.94 518.938 1070.19 511.375 1068.12 502.438 1066.06 493.5 1066.06 485.25 1066.06 476.313 1067.44 468.063 1070.19 463.938 1071.56 459.813 1072.94 455.688 1075L455.688 1075.69C455.688 1087.37 450.875 1098.37 443.313 1105.94 456.375 1110.06 466.688 1115.56 474.938 1121.75 477 1123.81 479.063 1125.19 480.438 1127.94L555.375 1127.94 555.375 1097C555.375 1092.19 553.313 1087.37 549.188 1084.62Z" fill="#000000" fill-rule="nonzero" fill-opacity="1"/><path d="M347.063 1121.75 347.063 1121.75C356.688 1114.87 367.688 1109.37 378.688 1105.94 371.125 1097.69 366.313 1087.37 366.313 1075.69 366.313 1075 366.313 1075 366.313 1074.31 362.188 1072.94 358.063 1070.87 353.938 1070.19 346.375 1068.12 337.438 1066.06 328.5 1066.06 320.25 1066.06 311.313 1067.44 303.063 1070.19 292.063 1073.62 281.75 1078.44 272.813 1084.62 268.688 1087.37 266.625 1092.19 266.625 1097L266.625 1127.94 340.875 1127.94C342.938 1125.19 344.313 1123.81 347.063 1121.75Z" fill="#000000" fill-rule="nonzero" fill-opacity="1"/></g></g></g><path d="M591 1082.75 692.5 1082.75 692.5 1070 718 1095.5 692.5 1121 692.5 1108.25 591 1108.25Z" fill="#7F7F7F" fill-rule="evenodd" fill-opacity="1"/><path d="M1783 892.52C1783 874.007 1798.01 859 1816.52 859L3196.48 859C3214.99 859 3230 874.007 3230 892.52L3230 1368.48C3230 1386.99 3214.99 1402 3196.48 1402L1816.52 1402C1798.01 1402 1783 1386.99 1783 1368.48Z" fill="#4472C4" fill-rule="evenodd" fill-opacity="1"/><text fill="#F2F2F2" fill-opacity="1" font-family="Oracle Sans,Oracle Sans_MSFontService,sans-serif" font-style="normal" font-variant="normal" font-weight="400" font-stretch="normal" font-size="37" text-anchor="start" direction="ltr" writing-mode="lr-tb" unicode-bidi="normal" text-decoration="none" transform="matrix(1 0 0 1 2464.15 1199)">High Availability, </text><text fill="#F2F2F2" fill-opacity="1" font-family="Oracle Sans,Oracle Sans_MSFontService,sans-serif" font-style="normal" font-variant="normal" font-weight="400" font-stretch="normal" font-size="37" text-anchor="start" direction="ltr" writing-mode="lr-tb" unicode-bidi="normal" text-decoration="none" transform="matrix(1 0 0 1 2515.71 1243)">serverless, </text><text fill="#F2F2F2" fill-opacity="1" font-family="Oracle Sans,Oracle Sans_MSFontService,sans-serif" font-style="normal" font-variant="normal" font-weight="400" font-stretch="normal" font-size="37" text-anchor="start" direction="ltr" writing-mode="lr-tb" unicode-bidi="normal" text-decoration="none" transform="matrix(1 0 0 1 2525.17 1287)">sharding</text><text fill="#F2F2F2" fill-opacity="1" font-family="Oracle Sans,Oracle Sans_MSFontService,sans-serif" font-style="normal" font-variant="normal" font-weight="400" font-stretch="normal" font-size="37" text-anchor="start" direction="ltr" writing-mode="lr-tb" unicode-bidi="normal" text-decoration="none" transform="matrix(1 0 0 1 2671.27 1287)">,  </text><text fill="#F2F2F2" fill-opacity="1" font-family="Oracle Sans,Oracle Sans_MSFontService,sans-serif" font-style="normal" font-variant="normal" font-weight="400" font-stretch="normal" font-size="37" text-anchor="start" direction="ltr" writing-mode="lr-tb" unicode-bidi="normal" text-decoration="none" transform="matrix(1 0 0 1 2438.09 1331)">on</text><text fill="#F2F2F2" fill-opacity="1" font-family="Oracle Sans,Oracle Sans_MSFontService,sans-serif" font-style="normal" font-variant="normal" font-weight="400" font-stretch="normal" font-size="37" text-anchor="start" direction="ltr" writing-mode="lr-tb" unicode-bidi="normal" text-decoration="none" transform="matrix(1 0 0 1 2481.06 1331)">-</text><text fill="#F2F2F2" fill-opacity="1" font-family="Oracle Sans,Oracle Sans_MSFontService,sans-serif" font-style="normal" font-variant="normal" font-weight="400" font-stretch="normal" font-size="37" text-anchor="start" direction="ltr" writing-mode="lr-tb" unicode-bidi="normal" text-decoration="none" transform="matrix(1 0 0 1 2496.53 1331)">demand scaling, </text><text fill="#F2F2F2" fill-opacity="1" font-family="Oracle Sans,Oracle Sans_MSFontService,sans-serif" font-style="normal" font-variant="normal" font-weight="400" font-stretch="normal" font-size="37" text-anchor="start" direction="ltr" writing-mode="lr-tb" unicode-bidi="normal" text-decoration="none" transform="matrix(1 0 0 1 2482.78 1375)">auto</text><text fill="#F2F2F2" fill-opacity="1" font-family="Oracle Sans,Oracle Sans_MSFontService,sans-serif" font-style="normal" font-variant="normal" font-weight="400" font-stretch="normal" font-size="37" text-anchor="start" direction="ltr" writing-mode="lr-tb" unicode-bidi="normal" text-decoration="none" transform="matrix(1 0 0 1 2557.83 1375)">-</text><text fill="#F2F2F2" fill-opacity="1" font-family="Oracle Sans,Oracle Sans_MSFontService,sans-serif" font-style="normal" font-variant="normal" font-weight="400" font-stretch="normal" font-size="37" text-anchor="start" direction="ltr" writing-mode="lr-tb" unicode-bidi="normal" text-decoration="none" transform="matrix(1 0 0 1 2573.3 1375)">repairing</text><g><g><g><path d="M2582 1076.54C2598.5 1076.54 2614.32 1074.88 2626.55 1071.85 2628.63 1071.33 2630.55 1070.8 2632.31 1070.22L2632.31 1060.83C2623.26 1064.19 2605.71 1067.6 2582 1067.6Z" fill="#FFFFFF" fill-rule="nonzero" fill-opacity="1"/><path d="M2582 1112.23C2598.5 1112.23 2614.32 1110.56 2626.55 1107.55 2628.63 1107.03 2630.55 1106.48 2632.31 1105.92L2632.31 1096.53C2623.26 1099.89 2605.71 1103.24 2582 1103.24Z" fill="#FFFFFF" fill-rule="nonzero" fill-opacity="1"/><path d="M2639.02 1037.53 2639.02 1039.21C2637.71 1041.62 2621.56 1049.62 2582 1049.62 2542.44 1049.62 2526.29 1041.62 2524.98 1039.21L2524.98 1013.1C2538.54 1019.93 2564.56 1022.05 2582 1022.05 2594.06 1022.05 2610.22 1021.04 2623.54 1018.17 2621.29 1015.73 2619.32 1013.06 2617.64 1010.21 2605.87 1012.23 2593.94 1013.19 2582 1013.09 2547.51 1013.09 2526.82 1006.17 2524.98 1002.34 2526.78 998.49 2547.46 991.57 2582 991.57 2591.98 991.524 2601.94 992.178 2611.83 993.526 2611.53 991.396 2611.38 989.248 2611.37 987.097 2611.37 986.214 2611.37 985.342 2611.45 984.47 2601.68 983.243 2591.85 982.627 2582 982.625 2557.5 982.625 2516.03 986.773 2516.03 1002.34 2516.02 1002.54 2516.02 1002.74 2516.03 1002.94 2516.02 1003.11 2516.02 1003.28 2516.03 1003.45L2516.03 1111.01C2516.03 1126.16 2557.5 1130.21 2582 1130.21 2606.5 1130.21 2647.97 1126.16 2647.97 1111.01L2647.97 1032C2644.89 1031.37 2641.89 1030.42 2639.02 1029.16ZM2582 1121.26C2542.44 1121.26 2526.29 1113.27 2524.98 1110.85L2524.98 1085.64C2538.54 1092.35 2564.56 1094.34 2582 1094.34 2599.44 1094.34 2625.46 1092.3 2639.02 1085.64L2639.02 1110.85C2637.71 1113.27 2621.56 1121.26 2582 1121.26ZM2639.02 1074.99C2637.71 1077.4 2621.56 1085.4 2582 1085.4 2542.44 1085.4 2526.29 1077.4 2524.98 1074.99L2524.98 1049.86C2538.54 1056.57 2564.56 1058.56 2582 1058.56 2599.44 1058.56 2625.46 1056.52 2639.02 1049.86L2639.02 1074.99Z" fill="#FFFFFF" fill-rule="nonzero" fill-opacity="1"/><path d="M2582 1040.67C2598.5 1040.67 2614.32 1039.01 2626.55 1035.98 2628.63 1035.46 2630.55 1034.93 2632.31 1034.36L2632.31 1025.56 2631.72 1025.18C2622.51 1028.44 2605.23 1031.73 2582 1031.73Z" fill="#FFFFFF" fill-rule="nonzero" fill-opacity="1"/><path d="M2657.21 947.965C2635.6 947.965 2618.08 965.485 2618.08 987.097 2618.08 1008.71 2635.6 1026.23 2657.21 1026.23 2678.82 1026.23 2696.34 1008.71 2696.34 987.097 2696.34 965.485 2678.82 947.965 2657.21 947.965ZM2657.21 1017.28C2640.54 1017.28 2627.02 1003.77 2627.02 987.097 2627.02 970.425 2640.54 956.91 2657.21 956.91 2673.88 956.91 2687.4 970.425 2687.4 987.097 2687.4 1003.77 2673.88 1017.28 2657.21 1017.28Z" fill="#FFFFFF" fill-rule="nonzero" fill-opacity="1"/><path d="M2661.38 965.854 2652.44 965.854 2652.44 989.68 2673.07 1001.59 2677.54 993.85 2661.38 984.515 2661.38 965.854Z" fill="#FFFFFF" fill-rule="nonzero" fill-opacity="1"/></g></g></g><text fill="#F2F2F2" fill-opacity="1" font-family="Oracle Sans,Oracle Sans_MSFontService,sans-serif" font-style="normal" font-variant="normal" font-weight="400" font-stretch="normal" font-size="37" text-anchor="start" direction="ltr" writing-mode="lr-tb" unicode-bidi="normal" text-decoration="none" transform="matrix(1 0 0 1 1822.46 1197)">Fully Managed </text><text fill="#FFFFFF" fill-opacity="1" font-family="Oracle Sans,Oracle Sans_MSFontService,sans-serif" font-style="normal" font-variant="normal" font-weight="400" font-stretch="normal" font-size="37" text-anchor="start" direction="ltr" writing-mode="lr-tb" unicode-bidi="normal" text-decoration="none" transform="matrix(1 0 0 1 1931.01 1241)">&amp; </text><text fill="#FFFFFF" fill-opacity="1" font-family="Oracle Sans,Oracle Sans_MSFontService,sans-serif" font-style="normal" font-variant="normal" font-weight="400" font-stretch="normal" font-size="37" text-anchor="start" direction="ltr" writing-mode="lr-tb" unicode-bidi="normal" text-decoration="none" transform="matrix(1 0 0 1 1837.05 1285)">Open Source</text><g><g><g><path d="M243.49 142.274 238.715 142.274 238.715 138.646C238.715 128.333 230.026 120.217 218.854 120.217L216.753 120.217 216.753 114.297C220.382 110.859 222.483 105.99 222.483 100.929L222.483 86.8924C222.483 77.4392 216.944 71.6146 208.16 71.6146L183.333 71.6146 183.333 75.434C183.333 75.7205 183.333 75.9115 183.333 76.1979L183.333 100.26C183.333 105.417 185.434 110.382 189.062 114.01L189.062 120.312 186.198 120.312C185.816 120.312 185.434 120.312 185.052 120.408 186.389 122.795 187.439 125.373 188.108 127.951L192.595 127.951C195.556 130.148 199.089 131.293 202.812 131.389L202.908 131.389C206.632 131.389 210.26 130.148 213.22 127.951L218.854 127.951C224.87 127.951 231.076 131.962 231.076 138.741L231.076 142.37 183.333 142.37 183.333 135.877C183.238 124.514 175.885 114.488 165.095 111.05 167.196 108.95 169.01 106.562 170.443 103.984L171.207 102.648 160.417 59.1059 160.417 59.2014C157.934 51.467 150.964 45.8333 142.847 45.8333L132.153 45.8333C122.986 45.8333 115.347 52.8993 113.819 62.066L103.793 102.457 104.557 103.793C105.99 106.372 107.804 108.759 109.905 110.859 99.1146 114.297 91.7622 124.323 91.6667 135.686L91.6667 142.274 43.9236 142.274 43.9236 138.646C43.9236 131.866 50.1302 127.856 56.1458 127.856L61.7795 127.856C64.7396 130.052 68.3681 131.293 72.092 131.293L72.1875 131.293C75.816 131.293 79.4444 130.148 82.4045 127.951L86.8924 127.951C87.5608 125.278 88.6111 122.795 89.9479 120.408 89.566 120.408 89.184 120.312 88.8021 120.312L85.9375 120.312 85.9375 114.01C89.566 110.382 91.6667 105.417 91.6667 100.165L91.6667 72.5694 66.8403 72.5694C58.0556 72.5694 52.6128 78.2986 52.5174 87.6562L52.5174 101.024C52.5174 106.085 54.6181 110.955 58.2465 114.392L58.2465 120.312 56.1458 120.312C44.974 120.217 36.2847 128.333 36.2847 138.646L36.2847 142.274 31.5104 142.274 23.8715 146.094 23.8715 149.913 251.128 149.913 251.128 146.094 243.49 142.274ZM214.844 101.024C214.844 107.231 209.401 112.292 202.812 112.292 196.224 112.101 191.068 106.849 190.972 100.26L190.972 89.566C192.786 90.3299 194.696 90.7118 196.701 90.7118L214.844 90.7118 214.844 101.024ZM208.16 79.2535C209.592 79.2535 212.934 79.2535 214.271 83.0729L196.701 83.0729C194.219 83.3594 191.927 81.6406 191.45 79.2535L208.16 79.2535ZM202.812 123.655C200.616 123.655 198.42 122.891 196.701 121.458L196.701 118.88C198.611 119.549 200.712 119.931 202.812 119.931 205.009 119.931 207.109 119.549 209.115 118.88L209.115 121.363C207.396 122.891 205.2 123.75 202.812 123.655ZM72.1875 123.655C69.8958 123.655 67.6042 122.891 65.8854 121.363L65.8854 118.88C67.8906 119.549 70.0868 119.931 72.1875 119.931 74.2882 119.931 76.2934 119.549 78.2986 118.88L78.2986 121.458C76.5799 122.891 74.3837 123.655 72.1875 123.655ZM66.8403 80.2083 83.6458 80.2083C83.0729 82.5955 80.7812 84.2188 78.2986 84.0278L60.7292 84.0278C62.066 80.2083 65.408 80.2083 66.8403 80.2083ZM78.2986 91.6667C80.3038 91.6667 82.2135 91.2847 84.0278 90.5208L84.0278 100.26C84.0278 106.849 78.776 112.101 72.1875 112.292 65.5035 112.292 60.1562 107.231 60.1562 101.024L60.1562 91.6667 78.2986 91.6667ZM152.491 109.809 151.823 109.809 151.823 99.1146C155.451 96.25 158.22 92.3351 159.748 88.0382L163.09 101.311C160.703 105.321 156.979 108.281 152.491 109.809ZM121.267 73.0469C126.997 73.8108 132.821 72.283 137.5 68.8455 142.083 72.3785 148.003 73.9062 153.733 73.0469L153.733 78.8715C153.733 88.6111 146.476 96.5365 137.5 96.5365 128.524 96.5365 121.267 88.6111 121.267 78.8715L121.267 73.0469ZM130.816 103.22C135.208 104.557 139.792 104.557 144.184 103.22L144.184 114.679C144.184 117.83 140.938 120.599 137.5 120.599 134.062 120.599 130.816 117.734 130.816 114.679L130.816 103.22ZM132.153 53.4722 142.752 53.4722C148.767 53.4722 153.637 58.8194 153.637 65.3125 150.486 65.9809 145.33 65.8854 139.983 61.1111L137.405 58.724 134.826 61.1111C129.479 65.9809 124.227 65.9809 121.172 65.3125 121.172 64.7396 121.267 64.1667 121.267 63.5938L121.936 60.9201C123.464 56.6233 127.569 53.5677 132.153 53.4722ZM115.252 88.1337C116.875 92.4306 119.549 96.25 123.177 99.1146L123.177 109.809 122.509 109.809C118.116 108.281 114.392 105.321 112.005 101.311L115.252 88.1337ZM99.3056 142.274 99.3056 135.781C99.3056 125.851 107.422 117.448 116.97 117.448L123.559 117.448C125.66 125.182 133.585 129.766 141.224 127.665 146.189 126.328 150.104 122.413 151.441 117.448L158.03 117.448C167.578 117.448 175.694 125.851 175.694 135.781L175.694 142.274 99.3056 142.274ZM153.064 177.604 147.717 180.755C146.38 179.705 144.852 178.845 143.229 178.273L143.229 172.639 130.816 172.639 130.816 178.75C129.575 179.323 128.429 179.991 127.378 180.851L121.936 177.604 115.92 187.821 121.363 190.972C121.172 191.832 121.172 192.691 121.172 193.55 121.172 194.41 121.267 195.269 121.363 196.128L115.92 199.375 121.936 209.592 127.378 206.441C128.429 207.3 129.575 207.969 130.816 208.542L130.816 214.653 143.229 214.653 143.229 209.019C144.852 208.446 146.38 207.587 147.717 206.536L153.064 209.688 159.08 199.47 153.733 196.319C154.019 194.601 154.019 192.786 153.733 191.068L159.08 187.917 153.064 177.604ZM137.595 202.431C132.726 202.431 128.811 198.516 128.811 193.646 128.811 188.776 132.726 184.861 137.595 184.861 142.465 184.861 146.38 188.776 146.38 193.646 146.285 198.516 142.37 202.431 137.595 202.431ZM137.5 155.451C116.398 155.451 99.3056 172.543 99.3056 193.646 99.3056 214.748 116.398 231.84 137.5 231.84 158.602 231.84 175.694 214.748 175.694 193.646 175.694 172.543 158.602 155.451 137.5 155.451ZM137.5 224.201C120.599 224.201 106.944 210.547 106.944 193.646 106.944 176.745 120.599 163.09 137.5 163.09 154.401 163.09 168.056 176.745 168.056 193.646 168.056 210.547 154.401 224.201 137.5 224.201ZM75.434 155.642 67.7951 155.642 67.7951 176.458 92.4306 184.002 94.6267 176.649 75.434 170.729 75.434 155.642ZM199.566 170.729 180.278 176.554 182.474 183.906 207.109 176.363 207.109 155.642 199.47 155.642 199.47 170.729 199.566 170.729Z" fill="#FFFFFF" fill-rule="nonzero" fill-opacity="1" transform="matrix(1.0017 0 0 1 1822.77 899)"/></g></g></g><text fill="#FFFFFF" fill-opacity="1" font-family="Oracle Sans,Oracle Sans_MSFontService,sans-serif" font-style="normal" font-variant="normal" font-weight="400" font-stretch="normal" font-size="37" text-anchor="start" direction="ltr" writing-mode="lr-tb" unicode-bidi="normal" text-decoration="none" transform="matrix(1 0 0 1 2149.59 1193)">Global Active </text><text fill="#FFFFFF" fill-opacity="1" font-family="Oracle Sans,Oracle Sans_MSFontService,sans-serif" font-style="normal" font-variant="normal" font-weight="400" font-stretch="normal" font-size="37" text-anchor="start" direction="ltr" writing-mode="lr-tb" unicode-bidi="normal" text-decoration="none" transform="matrix(1 0 0 1 2126.95 1237)">Tables provides </text><text fill="#FFFFFF" fill-opacity="1" font-family="Oracle Sans,Oracle Sans_MSFontService,sans-serif" font-style="normal" font-variant="normal" font-weight="400" font-stretch="normal" font-size="37" text-anchor="start" direction="ltr" writing-mode="lr-tb" unicode-bidi="normal" text-decoration="none" transform="matrix(1 0 0 1 2103.19 1281)">low</text><text fill="#FFFFFF" fill-opacity="1" font-family="Oracle Sans,Oracle Sans_MSFontService,sans-serif" font-style="normal" font-variant="normal" font-weight="400" font-stretch="normal" font-size="37" text-anchor="start" direction="ltr" writing-mode="lr-tb" unicode-bidi="normal" text-decoration="none" transform="matrix(1 0 0 1 2159.91 1281)">-</text><text fill="#FFFFFF" fill-opacity="1" font-family="Oracle Sans,Oracle Sans_MSFontService,sans-serif" font-style="normal" font-variant="normal" font-weight="400" font-stretch="normal" font-size="37" text-anchor="start" direction="ltr" writing-mode="lr-tb" unicode-bidi="normal" text-decoration="none" transform="matrix(1 0 0 1 2175.38 1281)">latency access </text><text fill="#FFFFFF" fill-opacity="1" font-family="Oracle Sans,Oracle Sans_MSFontService,sans-serif" font-style="normal" font-variant="normal" font-weight="400" font-stretch="normal" font-size="37" text-anchor="start" direction="ltr" writing-mode="lr-tb" unicode-bidi="normal" text-decoration="none" transform="matrix(1 0 0 1 2102.32 1325)">to your global data </text><text fill="#FFFFFF" fill-opacity="1" font-family="Oracle Sans,Oracle Sans_MSFontService,sans-serif" font-style="normal" font-variant="normal" font-weight="400" font-stretch="normal" font-size="37" text-anchor="start" direction="ltr" writing-mode="lr-tb" unicode-bidi="normal" text-decoration="none" transform="matrix(1 0 0 1 2134.97 1369)">&amp; seamless DR</text><path d="M1138 1084.75 1240.5 1084.75 1240.5 1072 1266 1097.5 1240.5 1123 1240.5 1110.25 1138 1110.25Z" fill="#7F7F7F" fill-rule="evenodd" fill-opacity="1"/><path d="M2201.73 978.595C2204.47 975.357 2206.98 971.871 2209.72 968.883 2221.6 955.187 2236.21 946.222 2252.89 941.988 2262.71 939.498 2272.53 939 2282.35 940.245 2283.26 940.245 2283.26 940.743 2283.26 941.49 2283.26 949.459 2283.26 957.179 2283.26 965.147 2283.26 967.638 2283.72 968.136 2286 968.136 2287.14 968.136 2288.29 968.136 2289.66 968.136 2291.03 968.136 2291.71 968.883 2291.71 970.377 2291.71 973.863 2291.71 977.1 2291.71 980.587 2291.48 984.322 2292.85 984.571 2296.05 984.073 2296.97 983.824 2297.88 983.077 2298.56 982.33 2306.1 974.112 2313.64 965.894 2321.17 957.677 2321.4 957.428 2321.63 956.93 2322.09 956.183 2325.51 959.42 2328.94 962.159 2332.14 965.396 2345.15 978.844 2353.83 995.279 2357.72 1014.7 2359.54 1024.41 2360 1034.38 2359.09 1044.09 2357.03 1065.75 2349.27 1084.43 2335.56 1100.37 2323.23 1114.31 2308.38 1123.53 2291.03 1127.51 2283.72 1129.25 2276.41 1130 2269.1 1129.75 2247.63 1128.51 2228.91 1120.29 2213.15 1104.35 2198.99 1090.16 2190.08 1072.48 2186.65 1051.81 2183 1029.15 2186.43 1007.73 2196.7 987.559 2196.93 986.812 2197.39 986.563 2198.3 986.563 2199.9 986.812 2201.5 986.563 2203.33 986.563 2204.93 986.563 2205.61 987.31 2205.61 989.303 2205.61 992.291 2205.38 995.528 2205.61 998.516 2205.84 1000.26 2206.07 1002 2206.75 1003.5 2209.26 1008.73 2211.78 1013.71 2214.29 1018.94 2215.2 1020.43 2216.34 1021.43 2217.94 1021.18 2218.86 1021.18 2219.54 1021.18 2220.23 1021.43 2221.6 1021.43 2222.51 1022.17 2223.2 1023.42 2226.17 1027.65 2228.91 1031.89 2231.88 1035.87 2233.02 1037.36 2234.16 1038.61 2235.53 1039.6 2239.87 1042.84 2244.44 1045.83 2249 1049.07 2250.37 1050.06 2251.97 1050.56 2253.8 1050.56 2255.4 1050.56 2256.77 1050.56 2258.14 1050.56 2260.19 1050.56 2260.65 1051.06 2260.65 1053.3 2260.65 1057.29 2260.65 1061.52 2260.65 1065.5 2260.65 1081.19 2260.65 1096.63 2260.65 1112.07 2260.65 1114.06 2261.34 1115.81 2262.71 1117.05 2264.08 1118.54 2265.45 1120.04 2266.82 1121.53 2268.42 1123.53 2270.7 1123.53 2272.76 1123.28 2273.67 1123.28 2274.13 1122.28 2273.9 1120.79 2273.44 1118.3 2272.98 1115.81 2272.53 1113.32 2271.84 1111.07 2272.53 1109.58 2274.13 1108.09 2280.75 1101.86 2287.37 1095.63 2294 1089.41 2295.37 1088.16 2296.28 1086.67 2296.97 1084.68 2299.48 1077.46 2302.22 1070.23 2304.73 1063.01 2305.42 1061.02 2304.96 1060.02 2303.36 1059.03 2295.59 1054.55 2287.6 1049.81 2279.84 1045.33 2278.47 1044.59 2276.87 1044.09 2275.27 1044.09 2269.1 1044.09 2263.16 1044.09 2257 1044.09 2255.17 1044.09 2253.8 1043.59 2252.2 1042.59 2249 1040.1 2245.81 1037.86 2242.38 1035.37 2241.24 1034.38 2240.55 1033.13 2240.55 1031.64 2240.55 1029.15 2240.55 1026.9 2240.55 1024.41 2240.55 1022.92 2241.24 1022.17 2242.61 1022.17 2244.66 1021.92 2246.95 1021.92 2249.23 1022.17 2250.6 1022.17 2251.29 1022.92 2251.29 1024.41 2251.29 1026.16 2251.29 1027.65 2251.29 1029.15 2251.29 1030.64 2251.97 1031.64 2253.34 1031.64 2254.03 1031.64 2254.94 1031.64 2255.63 1031.64 2257.23 1031.64 2257.91 1030.89 2257.91 1028.9 2257.91 1025.16 2258.14 1021.43 2257.91 1017.94 2257.91 1015.95 2258.6 1014.45 2259.97 1012.96 2267.05 1005.74 2273.9 998.516 2280.75 991.295 2282.12 990.05 2282.58 988.555 2282.58 986.812 2282.58 983.575 2282.58 980.587 2282.58 977.349 2282.58 975.606 2281.89 974.61 2280.06 974.61 2274.81 974.61 2269.33 974.61 2263.85 974.61 2262.25 974.61 2260.88 975.357 2259.74 976.602 2258.6 977.848 2257.23 978.346 2255.86 977.599 2253.8 976.602 2251.97 975.855 2250.15 975.108 2248.78 974.361 2248.55 973.614 2249.69 972.618 2251.74 970.875 2253.8 969.132 2255.63 967.389 2257 966.143 2258.37 965.894 2259.97 965.894 2263.62 965.894 2267.5 965.894 2271.16 965.894 2272.98 965.894 2273.67 965.147 2273.67 963.404 2273.67 962.159 2273.67 960.665 2273.67 959.42 2273.67 957.926 2272.98 957.179 2271.61 957.179 2262.94 957.179 2254.03 957.179 2245.35 957.179 2244.21 957.179 2242.84 957.677 2241.7 958.175 2231.65 963.902 2221.37 969.63 2211.09 975.108 2208.35 976.851 2205.15 977.848 2202.18 979.093 2201.96 978.844 2201.96 978.844 2201.73 978.595Z" fill="#FFFFFF" fill-rule="evenodd" fill-opacity="1"/><text fill="#FFFFFF" fill-opacity="1" font-family="Oracle Sans,Oracle Sans_MSFontService,sans-serif" font-style="normal" font-variant="normal" font-weight="400" font-stretch="normal" font-size="32" text-anchor="start" direction="ltr" writing-mode="lr-tb" unicode-bidi="normal" text-decoration="none" transform="matrix(1 0 0 1 2831.75 1213)">Ability to store massive </text><text fill="#FFFFFF" fill-opacity="1" font-family="Oracle Sans,Oracle Sans_MSFontService,sans-serif" font-style="normal" font-variant="normal" font-weight="400" font-stretch="normal" font-size="32" text-anchor="start" direction="ltr" writing-mode="lr-tb" unicode-bidi="normal" text-decoration="none" transform="matrix(1 0 0 1 2845.78 1251)">amounts of data with </text><text fill="#FFFFFF" fill-opacity="1" font-family="Oracle Sans,Oracle Sans_MSFontService,sans-serif" font-style="normal" font-variant="normal" font-weight="400" font-stretch="normal" font-size="32" text-anchor="start" direction="ltr" writing-mode="lr-tb" unicode-bidi="normal" text-decoration="none" transform="matrix(1 0 0 1 2834.89 1290)">single digit millisecond </text><text fill="#FFFFFF" fill-opacity="1" font-family="Oracle Sans,Oracle Sans_MSFontService,sans-serif" font-style="normal" font-variant="normal" font-weight="400" font-stretch="normal" font-size="32" text-anchor="start" direction="ltr" writing-mode="lr-tb" unicode-bidi="normal" text-decoration="none" transform="matrix(1 0 0 1 2810.83 1328)">response time (IoT / Time </text><text fill="#FFFFFF" fill-opacity="1" font-family="Oracle Sans,Oracle Sans_MSFontService,sans-serif" font-style="normal" font-variant="normal" font-weight="400" font-stretch="normal" font-size="32" text-anchor="start" direction="ltr" writing-mode="lr-tb" unicode-bidi="normal" text-decoration="none" transform="matrix(1 0 0 1 2951.19 1367)">Series)</text><text fill="#FFFFFF" fill-opacity="1" font-family="Oracle Sans Tab,Oracle Sans Tab_MSFontService,sans-serif" font-style="normal" font-variant="normal" font-weight="700" font-stretch="normal" font-size="41" text-anchor="start" direction="ltr" writing-mode="lr-tb" unicode-bidi="normal" text-decoration="none" transform="matrix(1 0 0 1 824.417 1232)">Car Health</text><path d="M1004.72 987.2 972.134 987.2C971.554 983.16 967.461 980.13 962.82 980.13L947.123 980.13C945.383 972.555 937.81 967 928.495 967 919.212 967 911.636 972.555 909.889 980.13L893.603 980.13C888.949 980.13 885.459 983.16 884.879 987.2L852.305 987.2C847.071 987.2 843 990.735 843 995.28L843 1160.92C843 1165.47 847.071 1169 852.305 1169L1004.72 1169C1009.94 1169 1014 1165.47 1014 1160.92L1014 995.28C1013.42 990.735 1009.36 987.2 1004.72 987.2ZM890.697 1147.29 868.01 1127.59 890.697 1127.59 890.697 1147.29ZM865.103 1120.52 865.103 1006.9 884.296 1006.9 884.296 1013.97 971.554 1013.97 971.554 1006.9 990.731 1006.9 990.731 1149.81 898.838 1149.81 898.838 1120.52 865.103 1120.52ZM893.024 988.21C893.024 987.705 893.024 987.2 893.603 987.2L916.87 987.2 916.87 983.665C916.87 978.11 922.113 974.07 927.915 974.07 933.748 974.07 938.97 978.615 938.97 983.665L938.97 987.2 962.239 987.2C962.82 987.2 963.4 987.705 963.4 988.21L963.4 1006.9 893.024 1006.9 893.024 988.21ZM1005.88 1160.92C1005.88 1161.43 1005.3 1161.93 1004.72 1161.93L852.305 1161.93C851.724 1161.93 851.141 1161.43 851.141 1160.92L851.141 995.28C851.141 994.775 851.724 994.27 852.305 994.27L884.879 994.27 884.879 999.825 857.542 999.825 857.542 1128.1 890.697 1156.88 1000.04 1156.88 1000.04 999.825 972.714 999.825 972.714 994.27 1005.3 994.27C1005.88 994.27 1006.46 994.775 1006.46 995.28L1005.88 1160.92Z" fill="#FFFFFF" fill-rule="evenodd" fill-opacity="1"/><path d="M928.484 980C925.437 980 923 982 923 984.5 923 987 925.437 989 928.484 989 931.563 989 934 987 934 984.5 934 982 930.921 980 928.484 980Z" fill="#FFFFFF" fill-rule="evenodd" fill-opacity="1"/><path d="M983.001 1092 873 1092 873 1099 983.001 1099 983.001 1092Z" fill="#FFFFFF" fill-rule="evenodd" fill-opacity="1"/><path d="M950.001 1106 873 1106 873 1113 950.001 1113 950.001 1106Z" fill="#FFFFFF" fill-rule="evenodd" fill-opacity="1"/><path d="M924.364 1069 932.646 1069 932.646 1055.7 948.001 1055.7 948.001 1048.81 932.646 1048.81 932.646 1036 924.364 1036 924.364 1048.81 909 1048.81 909 1055.7 924.364 1055.7 924.364 1069Z" fill="#FFFFFF" fill-rule="evenodd" fill-opacity="1"/><path d="M928.492 1083C947.803 1083 963 1069.39 963 1053.25 963 1037.12 947.803 1023 928.492 1023 909.203 1023 894 1036.61 894 1052.75 894 1068.88 909.203 1083 928.492 1083ZM928.492 1030.06C943.106 1030.06 954.803 1040.14 954.803 1052.75 954.803 1065.35 943.106 1075.44 928.492 1075.44 913.882 1075.44 902.185 1065.35 902.185 1052.75 902.185 1040.14 913.882 1030.06 928.492 1030.06Z" fill="#FFFFFF" fill-rule="evenodd" fill-opacity="1"/><text fill="#FFFFFF" fill-opacity="1" font-family="Oracle Sans,Oracle Sans_MSFontService,sans-serif" font-style="normal" font-variant="normal" font-weight="400" font-stretch="normal" font-size="37" text-anchor="start" direction="ltr" writing-mode="lr-tb" unicode-bidi="normal" text-decoration="none" transform="matrix(1 0 0 1 1346.96 1155)">NoSQL Database</text><path d="M1474.01 952.834C1504.54 952.834 1537.46 958.889 1537.46 972.231 1537.47 972.548 1537.47 972.868 1537.46 973.188 1537.48 973.406 1537.48 973.623 1537.46 973.84L1537.46 1087.27C1537.46 1102.33 1495.94 1106.17 1474.01 1106.17 1452.08 1106.17 1410.56 1102.33 1410.56 1087.27L1410.56 973.84C1410.54 973.623 1410.54 973.406 1410.56 973.188 1410.54 972.868 1410.54 972.548 1410.56 972.231 1410.56 958.889 1443.43 952.834 1474.01 952.834ZM1474.01 949C1462.81 949 1407.01 950.111 1407.01 972.231 1407 972.524 1407 972.818 1407.01 973.112 1407 973.353 1407 973.597 1407.01 973.84L1407.01 1087.27C1407.01 1108.89 1462.81 1110 1474.01 1110 1485.2 1110 1541 1108.89 1541 1087.27L1541 973.84C1541 973.573 1541 973.341 1541 973.112 1541 972.883 1541 972.498 1541 972.231 1541 950.111 1485.2 949 1474.01 949Z" fill="#FFFFFF" fill-rule="evenodd" fill-opacity="1"/><path d="M1491 1061C1485.57 1061.42 1479.85 1061.64 1474 1061.64 1468.15 1061.64 1462.43 1061.42 1457 1061L1457 1067.32C1463.17 1067.81 1469.09 1068 1474 1068 1478.91 1068 1484.8 1067.81 1491 1067.32L1491 1061Z" fill="#FFFFFF" fill-rule="evenodd" fill-opacity="1"/><path d="M1457 1030.32C1463.17 1030.81 1469.09 1031 1474 1031 1478.91 1031 1484.8 1030.81 1491 1030.32L1491 1024C1485.57 1024.42 1479.85 1024.64 1474 1024.64 1468.15 1024.64 1462.43 1024.42 1457 1024L1457 1030.32Z" fill="#FFFFFF" fill-rule="evenodd" fill-opacity="1"/><path d="M1536.99 971.481C1536.99 958.084 1504.32 952 1474 952 1443.69 952 1411.01 958.084 1411.01 971.481 1411 971.802 1411 972.123 1411.01 972.445 1411 972.661 1411 972.881 1411.01 973.098L1411.01 1087.02C1411.01 1102.15 1452.2 1106 1474 1106 1495.8 1106 1536.99 1102.15 1536.99 1087.02L1536.99 973.098C1537 972.881 1537 972.661 1536.99 972.445 1537 972.123 1537 971.802 1536.99 971.481ZM1515.88 1094.99C1502.17 1098.19 1488.17 1099.71 1474.14 1099.49 1460.02 1099.73 1445.92 1098.22 1432.12 1094.99 1419.63 1091.72 1416.82 1088.06 1416.82 1087.02L1416.82 1057.72C1423.66 1061.47 1431.03 1063.92 1438.62 1064.96L1438.62 1058.41C1436.33 1057.95 1434.16 1057.49 1432.12 1056.95 1419.63 1053.68 1416.82 1049.98 1416.82 1048.98L1416.82 1020.22C1423.66 1023.97 1431.03 1026.42 1438.62 1027.46L1438.62 1020.92C1436.33 1020.45 1434.16 1019.99 1432.12 1019.45 1419.63 1016.18 1416.82 1012.48 1416.82 1011.48L1416.82 980.374C1427.58 987.573 1451.35 990.923 1473.86 990.923 1496.37 990.923 1520.14 987.573 1530.9 980.374L1530.9 1011.48C1530.9 1012.48 1528.09 1016.18 1515.6 1019.45 1513.56 1019.99 1511.38 1020.45 1509.1 1020.92L1509.1 1027.46C1516.69 1026.42 1524.06 1023.97 1530.9 1020.22L1530.9 1048.98C1530.9 1049.98 1528.09 1053.68 1515.6 1056.95 1513.56 1057.49 1511.38 1057.95 1509.1 1058.41L1509.1 1064.96C1516.69 1063.92 1524.06 1061.47 1530.9 1057.72L1530.9 1087.02C1531.04 1088.06 1528.23 1091.72 1515.74 1094.99L1515.88 1094.99ZM1474 958.506C1488.02 958.3 1502.02 959.863 1515.71 963.165 1528.3 966.553 1531.04 970.288 1531.04 971.481 1531.04 972.675 1528.3 976.408 1515.71 979.798 1502.02 983.101 1488.02 984.663 1474 984.455 1459.92 984.673 1445.87 983.111 1432.12 979.798 1419.7 976.408 1416.96 972.637 1416.96 971.481 1416.96 970.326 1419.7 966.553 1432.12 963.165 1445.87 959.852 1459.92 958.29 1474 958.506Z" fill="#FFFFFF" fill-rule="evenodd" fill-opacity="1"/><path d="M1454.94 1084C1456.97 1084 1459 1083.79 1461 1083.35L1461 1075.3C1459.84 1075.59 1458.65 1075.73 1457.45 1075.72 1456.68 1075.81 1455.89 1075.73 1455.15 1075.48 1454.41 1075.23 1453.72 1074.81 1453.13 1074.27 1452.2 1072.8 1451.77 1071.03 1451.92 1069.26L1451.92 1049.95 1444.09 1043.54 1451.92 1037.09 1451.92 1017.73C1451.77 1015.97 1452.2 1014.2 1453.13 1012.73 1453.72 1012.18 1454.41 1011.77 1455.15 1011.52 1455.89 1011.27 1456.68 1011.19 1457.45 1011.28 1458.65 1011.29 1459.83 1011.43 1461 1011.7L1461 1003.69C1459.01 1003.22 1456.97 1002.99 1454.94 1003 1446.85 1003 1442.81 1007.54 1442.81 1016.63L1442.81 1034.45 1436 1040.64 1436 1046.55 1442.81 1052.59 1442.81 1070.41C1442.81 1079.47 1446.85 1084 1454.94 1084Z" fill="#FFFFFF" fill-rule="evenodd" fill-opacity="1"/><path d="M1493.16 1003C1491.13 1002.99 1489.09 1003.22 1487.11 1003.69L1487.11 1011.71C1488.27 1011.44 1489.46 1011.29 1490.65 1011.29 1491.42 1011.2 1492.19 1011.28 1492.93 1011.53 1493.67 1011.78 1494.35 1012.19 1494.93 1012.74 1495.82 1014.21 1496.2 1015.96 1496.03 1017.7L1496.03 1037.03 1503.89 1043.48 1496.03 1049.9 1496.03 1069.26C1496.18 1071.03 1495.75 1072.8 1494.83 1074.26 1494.24 1074.81 1493.56 1075.22 1492.82 1075.47 1492.09 1075.72 1491.31 1075.8 1490.54 1075.71 1489.35 1075.73 1488.16 1075.59 1487 1075.29L1487 1083.35C1488.99 1083.79 1491.02 1084 1493.05 1084 1501.13 1084 1505.17 1079.46 1505.17 1070.37L1505.17 1052.53 1512 1046.5 1512 1040.62 1505.17 1034.51 1505.17 1016.63C1505.24 1007.55 1501.24 1003 1493.16 1003Z" fill="#FFFFFF" fill-rule="evenodd" fill-opacity="1"/><path d="M3061.74 955.138C3059.74 953.162 3057.2 951.817 3054.44 951.272 3051.67 950.726 3048.8 951.006 3046.2 952.076 3043.59 953.145 3041.37 954.955 3039.8 957.278 3038.24 959.601 3037.4 962.332 3037.4 965.126 3037.38 967.465 3037.95 969.771 3039.05 971.84 3040.15 973.908 3041.75 975.675 3043.71 976.981 3045.67 978.287 3047.92 979.093 3050.27 979.327 3052.62 979.56 3054.99 979.214 3057.17 978.319 3059.35 977.424 3061.28 976.008 3062.77 974.198 3064.26 972.387 3065.28 970.238 3065.73 967.942 3066.19 965.647 3066.06 963.276 3065.36 961.042 3064.66 958.808 3063.42 956.779 3061.74 955.138ZM3056.27 969.702C3055.1 970.888 3053.51 971.568 3051.83 971.594 3050.16 971.554 3048.57 970.876 3047.39 969.702 3046.21 968.529 3045.53 966.956 3045.48 965.302 3045.54 963.65 3046.22 962.08 3047.39 960.902 3048.58 959.742 3050.17 959.067 3051.83 959.01 3053.47 959.052 3055.04 959.704 3056.22 960.838 3057.39 961.971 3058.1 963.502 3058.18 965.126 3058.15 966.784 3057.47 968.363 3056.27 969.526L3056.27 969.702ZM2913.32 995.002C2912 993.69 2910.43 992.65 2908.7 991.94 2906.97 991.23 2905.11 990.865 2903.24 990.865 2901.37 990.865 2899.51 991.23 2897.78 991.94 2896.05 992.65 2894.48 993.69 2893.16 995.002 2890.5 997.656 2889 1001.25 2889 1004.99 2889 1008.73 2890.5 1012.32 2893.16 1014.98 2895.83 1017.63 2899.46 1019.12 2903.24 1019.12 2907.02 1019.12 2910.65 1017.63 2913.32 1014.98 2915.99 1012.33 2917.5 1008.74 2917.5 1004.99 2917.5 1001.24 2915.99 997.651 2913.32 995.002ZM2907.86 1009.7C2907.25 1010.3 2906.53 1010.78 2905.74 1011.1 2904.95 1011.43 2904.1 1011.59 2903.24 1011.59 2902.38 1011.59 2901.53 1011.43 2900.74 1011.1 2899.95 1010.78 2899.23 1010.3 2898.62 1009.7 2897.41 1008.48 2896.72 1006.83 2896.72 1005.12 2896.72 1003.41 2897.41 1001.76 2898.62 1000.55 2899.23 999.945 2899.95 999.468 2900.74 999.142 2901.53 998.817 2902.38 998.649 2903.24 998.649 2904.1 998.649 2904.95 998.817 2905.74 999.142 2906.53 999.468 2907.25 999.945 2907.86 1000.55 2909.07 1001.76 2909.75 1003.41 2909.75 1005.12 2909.75 1006.83 2909.07 1008.48 2907.86 1009.7ZM3001.92 1102.89C2999.92 1104.87 2998.57 1107.38 2998.02 1110.12 2997.47 1112.86 2997.75 1115.7 2998.83 1118.28 2999.91 1120.86 3001.73 1123.07 3004.08 1124.62 3006.42 1126.17 3009.18 1127 3012 1127 3014.82 1127 3017.57 1126.17 3019.92 1124.62 3022.26 1123.07 3024.09 1120.86 3025.17 1118.28 3026.25 1115.7 3026.53 1112.86 3025.98 1110.12 3025.43 1107.38 3024.07 1104.87 3022.08 1102.89 3020.76 1101.57 3019.19 1100.53 3017.46 1099.81 3015.73 1099.1 3013.87 1098.73 3012 1098.73 3010.12 1098.73 3008.27 1099.1 3006.54 1099.81 3004.81 1100.53 3003.24 1101.57 3001.92 1102.89ZM3016.62 1117.45C3015.39 1118.66 3013.73 1119.33 3012 1119.33 3010.27 1119.33 3008.61 1118.66 3007.38 1117.45 3006.77 1116.85 3006.29 1116.14 3005.96 1115.36 3005.63 1114.57 3005.46 1113.73 3005.46 1112.88 3005.46 1112.03 3005.63 1111.19 3005.96 1110.4 3006.29 1109.62 3006.77 1108.9 3007.38 1108.3 3008.61 1107.09 3010.27 1106.41 3012 1106.41 3013.73 1106.41 3015.39 1107.09 3016.62 1108.3 3017.84 1109.52 3018.53 1111.16 3018.53 1112.88 3018.53 1114.59 3017.84 1116.24 3016.62 1117.45ZM3042.82 982.99C3045.17 984.117 3047.72 984.789 3050.32 984.97L3020.57 1094.97C3018.21 1093.87 3015.67 1093.22 3013.06 1093.08L3042.82 982.99ZM2997.79 1098.8C2996.88 1099.71 2996.06 1100.71 2995.35 1101.79L2914.43 1021.62C2915.51 1020.92 2916.53 1020.11 2917.45 1019.2 2918.41 1018.28 2919.29 1017.28 2920.07 1016.21L3000.81 1096.2C2999.72 1096.91 2998.71 1097.72 2997.79 1098.62L2997.79 1098.8ZM2923.22 1003.23C2922.97 1000.65 2922.22 998.138 2921 995.838L3031.67 966.49C3031.85 969.059 3032.53 971.57 3033.67 973.882L2923.22 1003.23ZM3037.49 979.206C3036.56 978.292 3035.73 977.289 3035 976.214L2998.45 1012.6C2996.32 1011.43 2993.92 1010.81 2991.48 1010.8 2989.61 1010.8 2987.76 1011.16 2986.02 1011.87 2984.29 1012.58 2982.72 1013.62 2981.4 1014.93 2980.4 1015.92 2979.57 1017.04 2978.91 1018.28L2923.31 1005.25C2923.26 1007.78 2922.73 1010.27 2921.76 1012.6L2977.27 1025.8C2977.48 1029.28 2978.98 1032.56 2981.5 1035 2984.01 1037.44 2987.34 1038.87 2990.86 1039L3003.78 1094.88C3006.17 1093.84 3008.73 1093.26 3011.33 1093.17L2998.41 1037.29C2999.56 1036.63 3000.62 1035.84 3001.56 1034.91 3002.89 1033.6 3003.94 1032.04 3004.66 1030.33 3005.37 1028.62 3005.74 1026.78 3005.74 1024.92 3005.75 1022.5 3005.12 1020.12 3003.92 1018.01L3040.46 981.802C3039.4 981.084 3038.41 980.274 3037.49 979.382L3037.49 979.206ZM2984.95 1024.79C2984.98 1023.13 2985.66 1021.55 2986.86 1020.39 2987.47 1019.79 2988.19 1019.31 2988.98 1018.99 2989.77 1018.66 2990.62 1018.49 2991.48 1018.49 2992.34 1018.49 2993.19 1018.66 2993.98 1018.99 2994.77 1019.31 2995.49 1019.79 2996.1 1020.39 2997.3 1021.55 2997.98 1023.13 2998.01 1024.79 2997.97 1026.45 2997.28 1028.02 2996.1 1029.19 2995.49 1029.79 2994.77 1030.27 2993.98 1030.59 2993.19 1030.92 2992.34 1031.09 2991.48 1031.09 2990.62 1031.09 2989.77 1030.92 2988.98 1030.59 2988.19 1030.27 2987.47 1029.79 2986.86 1029.19 2985.68 1028.02 2984.99 1026.45 2984.95 1024.79Z" fill="#FFFFFF" fill-rule="evenodd" fill-opacity="1"/></g></g></svg>