<svg width="3131" height="546" xmlns="http://www.w3.org/2000/svg" xmlns:xlink="http://www.w3.org/1999/xlink" xml:space="preserve" overflow="hidden"><g transform="translate(-242 -847)"><g><path d="M1279 932.038C1279 917.105 1291.11 905 1306.04 905L1689.96 905C1704.89 905 1717 917.105 1717 932.038L1717 1322.96C1717 1337.89 1704.89 1350 1689.96 1350L1306.04 1350C1291.11 1350 1279 1337.89 1279 1322.96Z" fill="#2F5597" fill-rule="evenodd" fill-opacity="1"/><rect x="743" y="926" width="371" height="377" fill="#222A35" fill-opacity="1"/><rect x="1335" y="1243" width="318" height="72.9999" fill="#BF9000" fill-opacity="1"/><text fill="#FFFFFF" fill-opacity="1" font-family="Oracle Sans Tab,Oracle Sans Tab_MSFontService,sans-serif" font-style="normal" font-variant="normal" font-weight="400" font-stretch="normal" font-size="32" text-anchor="start" direction="ltr" writing-mode="lr-tb" unicode-bidi="normal" text-decoration="none" transform="matrix(1 0 0 1 1390.02 1289)">Search Engine</text><g><g><g><path d="M359.438 1026.87C359.438 1043.96 345.586 1057.81 328.5 1057.81 311.414 1057.81 297.563 1043.96 297.563 1026.87 297.563 1009.79 311.414 995.937 328.5 995.937 345.586 995.937 359.438 1009.79 359.438 1026.87Z" fill="#000000" fill-rule="nonzero" fill-opacity="1"/><path d="M524.438 1026.87C524.438 1043.96 510.586 1057.81 493.5 1057.81 476.414 1057.81 462.563 1043.96 462.563 1026.87 462.563 1009.79 476.414 995.937 493.5 995.937 510.586 995.937 524.438 1009.79 524.438 1026.87Z" fill="#000000" fill-rule="nonzero" fill-opacity="1"/><path d="M472.875 1176.06 472.875 1145.12C472.875 1140.31 470.813 1135.5 466.688 1132.75 458.438 1125.87 447.438 1121.06 436.438 1118.31 428.875 1116.25 419.938 1114.19 411 1114.19 402.75 1114.19 393.813 1115.56 385.563 1118.31 374.563 1121.06 364.25 1126.56 355.313 1132.75 351.188 1136.19 349.125 1140.31 349.125 1145.12L349.125 1176.06 472.875 1176.06Z" fill="#000000" fill-rule="nonzero" fill-opacity="1"/><path d="M441.938 1075C441.938 1092.09 428.086 1105.94 411 1105.94 393.914 1105.94 380.063 1092.09 380.063 1075 380.063 1057.91 393.914 1044.06 411 1044.06 428.086 1044.06 441.938 1057.91 441.938 1075Z" fill="#000000" fill-rule="nonzero" fill-opacity="1"/><path d="M549.188 1084.62C540.938 1077.75 529.938 1072.94 518.938 1070.19 511.375 1068.12 502.438 1066.06 493.5 1066.06 485.25 1066.06 476.313 1067.44 468.063 1070.19 463.938 1071.56 459.813 1072.94 455.688 1075L455.688 1075.69C455.688 1087.37 450.875 1098.37 443.313 1105.94 456.375 1110.06 466.688 1115.56 474.938 1121.75 477 1123.81 479.063 1125.19 480.438 1127.94L555.375 1127.94 555.375 1097C555.375 1092.19 553.313 1087.37 549.188 1084.62Z" fill="#000000" fill-rule="nonzero" fill-opacity="1"/><path d="M347.063 1121.75 347.063 1121.75C356.688 1114.87 367.688 1109.37 378.688 1105.94 371.125 1097.69 366.313 1087.37 366.313 1075.69 366.313 1075 366.313 1075 366.313 1074.31 362.188 1072.94 358.063 1070.87 353.938 1070.19 346.375 1068.12 337.438 1066.06 328.5 1066.06 320.25 1066.06 311.313 1067.44 303.063 1070.19 292.063 1073.62 281.75 1078.44 272.813 1084.62 268.688 1087.37 266.625 1092.19 266.625 1097L266.625 1127.94 340.875 1127.94C342.938 1125.19 344.313 1123.81 347.063 1121.75Z" fill="#000000" fill-rule="nonzero" fill-opacity="1"/></g></g></g><path d="M591 1082.75 692.5 1082.75 692.5 1070 718 1095.5 692.5 1121 692.5 1108.25 591 1108.25Z" fill="#7F7F7F" fill-rule="evenodd" fill-opacity="1"/><path d="M1783 882.52C1783 864.007 1798.01 849 1816.52 849L3339.48 849C3357.99 849 3373 864.007 3373 882.52L3373 1358.48C3373 1376.99 3357.99 1392 3339.48 1392L1816.52 1392C1798.01 1392 1783 1376.99 1783 1358.48Z" fill="#4472C4" fill-rule="evenodd" fill-opacity="1"/><text fill="#F2F2F2" fill-opacity="1" font-family="Oracle Sans,Oracle Sans_MSFontService,sans-serif" font-style="normal" font-variant="normal" font-weight="400" font-stretch="normal" font-size="37" text-anchor="start" direction="ltr" writing-mode="lr-tb" unicode-bidi="normal" text-decoration="none" transform="matrix(1 0 0 1 1822.46 1197)">Fully Managed </text><text fill="#FFFFFF" fill-opacity="1" font-family="Oracle Sans,Oracle Sans_MSFontService,sans-serif" font-style="normal" font-variant="normal" font-weight="400" font-stretch="normal" font-size="37" text-anchor="start" direction="ltr" writing-mode="lr-tb" unicode-bidi="normal" text-decoration="none" transform="matrix(1 0 0 1 1931.01 1241)">&amp; </text><text fill="#FFFFFF" fill-opacity="1" font-family="Oracle Sans,Oracle Sans_MSFontService,sans-serif" font-style="normal" font-variant="normal" font-weight="400" font-stretch="normal" font-size="37" text-anchor="start" direction="ltr" writing-mode="lr-tb" unicode-bidi="normal" text-decoration="none" transform="matrix(1 0 0 1 1837.05 1285)">Open Source</text><g><g><g><path d="M243.49 142.274 238.715 142.274 238.715 138.646C238.715 128.333 230.026 120.217 218.854 120.217L216.753 120.217 216.753 114.297C220.382 110.859 222.483 105.99 222.483 100.929L222.483 86.8924C222.483 77.4392 216.944 71.6146 208.16 71.6146L183.333 71.6146 183.333 75.434C183.333 75.7205 183.333 75.9115 183.333 76.1979L183.333 100.26C183.333 105.417 185.434 110.382 189.062 114.01L189.062 120.312 186.198 120.312C185.816 120.312 185.434 120.312 185.052 120.408 186.389 122.795 187.439 125.373 188.108 127.951L192.595 127.951C195.556 130.148 199.089 131.293 202.812 131.389L202.908 131.389C206.632 131.389 210.26 130.148 213.22 127.951L218.854 127.951C224.87 127.951 231.076 131.962 231.076 138.741L231.076 142.37 183.333 142.37 183.333 135.877C183.238 124.514 175.885 114.488 165.095 111.05 167.196 108.95 169.01 106.562 170.443 103.984L171.207 102.648 160.417 59.1059 160.417 59.2014C157.934 51.467 150.964 45.8333 142.847 45.8333L132.153 45.8333C122.986 45.8333 115.347 52.8993 113.819 62.066L103.793 102.457 104.557 103.793C105.99 106.372 107.804 108.759 109.905 110.859 99.1146 114.297 91.7622 124.323 91.6667 135.686L91.6667 142.274 43.9236 142.274 43.9236 138.646C43.9236 131.866 50.1302 127.856 56.1458 127.856L61.7795 127.856C64.7396 130.052 68.3681 131.293 72.092 131.293L72.1875 131.293C75.816 131.293 79.4444 130.148 82.4045 127.951L86.8924 127.951C87.5608 125.278 88.6111 122.795 89.9479 120.408 89.566 120.408 89.184 120.312 88.8021 120.312L85.9375 120.312 85.9375 114.01C89.566 110.382 91.6667 105.417 91.6667 100.165L91.6667 72.5694 66.8403 72.5694C58.0556 72.5694 52.6128 78.2986 52.5174 87.6562L52.5174 101.024C52.5174 106.085 54.6181 110.955 58.2465 114.392L58.2465 120.312 56.1458 120.312C44.974 120.217 36.2847 128.333 36.2847 138.646L36.2847 142.274 31.5104 142.274 23.8715 146.094 23.8715 149.913 251.128 149.913 251.128 146.094 243.49 142.274ZM214.844 101.024C214.844 107.231 209.401 112.292 202.812 112.292 196.224 112.101 191.068 106.849 190.972 100.26L190.972 89.566C192.786 90.3299 194.696 90.7118 196.701 90.7118L214.844 90.7118 214.844 101.024ZM208.16 79.2535C209.592 79.2535 212.934 79.2535 214.271 83.0729L196.701 83.0729C194.219 83.3594 191.927 81.6406 191.45 79.2535L208.16 79.2535ZM202.812 123.655C200.616 123.655 198.42 122.891 196.701 121.458L196.701 118.88C198.611 119.549 200.712 119.931 202.812 119.931 205.009 119.931 207.109 119.549 209.115 118.88L209.115 121.363C207.396 122.891 205.2 123.75 202.812 123.655ZM72.1875 123.655C69.8958 123.655 67.6042 122.891 65.8854 121.363L65.8854 118.88C67.8906 119.549 70.0868 119.931 72.1875 119.931 74.2882 119.931 76.2934 119.549 78.2986 118.88L78.2986 121.458C76.5799 122.891 74.3837 123.655 72.1875 123.655ZM66.8403 80.2083 83.6458 80.2083C83.0729 82.5955 80.7812 84.2188 78.2986 84.0278L60.7292 84.0278C62.066 80.2083 65.408 80.2083 66.8403 80.2083ZM78.2986 91.6667C80.3038 91.6667 82.2135 91.2847 84.0278 90.5208L84.0278 100.26C84.0278 106.849 78.776 112.101 72.1875 112.292 65.5035 112.292 60.1562 107.231 60.1562 101.024L60.1562 91.6667 78.2986 91.6667ZM152.491 109.809 151.823 109.809 151.823 99.1146C155.451 96.25 158.22 92.3351 159.748 88.0382L163.09 101.311C160.703 105.321 156.979 108.281 152.491 109.809ZM121.267 73.0469C126.997 73.8108 132.821 72.283 137.5 68.8455 142.083 72.3785 148.003 73.9062 153.733 73.0469L153.733 78.8715C153.733 88.6111 146.476 96.5365 137.5 96.5365 128.524 96.5365 121.267 88.6111 121.267 78.8715L121.267 73.0469ZM130.816 103.22C135.208 104.557 139.792 104.557 144.184 103.22L144.184 114.679C144.184 117.83 140.938 120.599 137.5 120.599 134.062 120.599 130.816 117.734 130.816 114.679L130.816 103.22ZM132.153 53.4722 142.752 53.4722C148.767 53.4722 153.637 58.8194 153.637 65.3125 150.486 65.9809 145.33 65.8854 139.983 61.1111L137.405 58.724 134.826 61.1111C129.479 65.9809 124.227 65.9809 121.172 65.3125 121.172 64.7396 121.267 64.1667 121.267 63.5938L121.936 60.9201C123.464 56.6233 127.569 53.5677 132.153 53.4722ZM115.252 88.1337C116.875 92.4306 119.549 96.25 123.177 99.1146L123.177 109.809 122.509 109.809C118.116 108.281 114.392 105.321 112.005 101.311L115.252 88.1337ZM99.3056 142.274 99.3056 135.781C99.3056 125.851 107.422 117.448 116.97 117.448L123.559 117.448C125.66 125.182 133.585 129.766 141.224 127.665 146.189 126.328 150.104 122.413 151.441 117.448L158.03 117.448C167.578 117.448 175.694 125.851 175.694 135.781L175.694 142.274 99.3056 142.274ZM153.064 177.604 147.717 180.755C146.38 179.705 144.852 178.845 143.229 178.273L143.229 172.639 130.816 172.639 130.816 178.75C129.575 179.323 128.429 179.991 127.378 180.851L121.936 177.604 115.92 187.821 121.363 190.972C121.172 191.832 121.172 192.691 121.172 193.55 121.172 194.41 121.267 195.269 121.363 196.128L115.92 199.375 121.936 209.592 127.378 206.441C128.429 207.3 129.575 207.969 130.816 208.542L130.816 214.653 143.229 214.653 143.229 209.019C144.852 208.446 146.38 207.587 147.717 206.536L153.064 209.688 159.08 199.47 153.733 196.319C154.019 194.601 154.019 192.786 153.733 191.068L159.08 187.917 153.064 177.604ZM137.595 202.431C132.726 202.431 128.811 198.516 128.811 193.646 128.811 188.776 132.726 184.861 137.595 184.861 142.465 184.861 146.38 188.776 146.38 193.646 146.285 198.516 142.37 202.431 137.595 202.431ZM137.5 155.451C116.398 155.451 99.3056 172.543 99.3056 193.646 99.3056 214.748 116.398 231.84 137.5 231.84 158.602 231.84 175.694 214.748 175.694 193.646 175.694 172.543 158.602 155.451 137.5 155.451ZM137.5 224.201C120.599 224.201 106.944 210.547 106.944 193.646 106.944 176.745 120.599 163.09 137.5 163.09 154.401 163.09 168.056 176.745 168.056 193.646 168.056 210.547 154.401 224.201 137.5 224.201ZM75.434 155.642 67.7951 155.642 67.7951 176.458 92.4306 184.002 94.6267 176.649 75.434 170.729 75.434 155.642ZM199.566 170.729 180.278 176.554 182.474 183.906 207.109 176.363 207.109 155.642 199.47 155.642 199.47 170.729 199.566 170.729Z" fill="#FFFFFF" fill-rule="nonzero" fill-opacity="1" transform="matrix(1.0017 0 0 1 1822.77 899)"/></g></g></g><path d="M1138 1084.75 1240.5 1084.75 1240.5 1072 1266 1097.5 1240.5 1123 1240.5 1110.25 1138 1110.25Z" fill="#7F7F7F" fill-rule="evenodd" fill-opacity="1"/><path d="M1600.97 1081.81 1598.44 1079.72 1594.4 1076.38 1584.3 1068.01C1578.75 1063.42 1573.19 1059.24 1567.13 1055.47L1552.49 1046.69C1555.51 1040.84 1557.03 1034.15 1557.03 1027.88 1557.03 1019.1 1554.51 1010.74 1548.95 1003.63L1583.8 1003.63 1589.86 1003.63 1589.86 998.617 1589.86 943.016 1589.86 938 1583.8 938 1517.13 938 1511.07 938 1511.07 943.016 1511.07 981.058C1507.03 980.223 1502.99 979.805 1498.45 979.805 1493.9 979.805 1489.35 980.223 1485.31 981.058L1485.31 943.016 1485.31 938 1479.76 938 1413.09 938 1407.03 938 1407.03 943.016 1407.03 999.035 1407.03 1004.05 1413.09 1004.05 1448.95 1004.05C1443.9 1011.16 1440.87 1019.52 1440.87 1028.3 1440.87 1033.73 1441.88 1039.17 1443.9 1044.19 1428.75 1047.11 1417.64 1058.4 1417.64 1071.78L1417.64 1075.12 1410.06 1075.12 1404 1075.12 1404 1080.14 1404 1083.48C1404 1099.37 1419.66 1111.91 1438.34 1111.91L1442.38 1111.91 1448.44 1111.91 1448.44 1106.89 1448.44 1100.62 1452.49 1100.62C1470.16 1100.62 1484.81 1089.75 1486.83 1075.54 1490.87 1076.38 1494.91 1076.79 1499.46 1076.79 1507.54 1076.79 1516.12 1075.12 1523.7 1072.61L1534.81 1084.74C1538.34 1088.92 1540.87 1091.43 1545.92 1095.61L1559.05 1106.48 1563.09 1109.82 1565.62 1111.91 1568.14 1114 1571.68 1113.16 1579.76 1111.07 1581.27 1110.66 1582.28 1109.82 1598.95 1096.02 1599.96 1095.19 1600.46 1093.93 1602.99 1087.24 1604 1084.32 1600.97 1081.81ZM1517.13 943.016 1584.3 943.016 1584.3 999.035 1545.41 999.035C1543.9 997.363 1541.88 995.691 1539.86 994.019 1537.33 991.929 1534.81 990.257 1531.78 988.585L1531.78 976.043 1540.36 976.043 1540.36 992.347 1546.93 992.347 1546.93 967.265 1555.51 967.265 1555.51 992.347 1562.08 992.347 1562.08 958.902 1570.16 958.902 1570.16 992.347 1577.23 992.347 1577.23 949.288 1525.21 949.288 1525.21 984.823C1522.69 983.987 1520.16 982.733 1517.64 982.315L1517.64 943.016 1517.13 943.016ZM1413.09 998.617 1413.09 943.016 1479.76 943.016 1479.76 982.315C1477.23 983.151 1474.71 983.987 1472.18 985.241L1472.18 971.863 1454.51 985.241 1437.84 972.698 1420.67 986.495 1420.16 986.077 1420.16 992.347 1459.56 992.347C1459.05 992.765 1458.55 993.183 1457.54 993.601 1455.51 995.273 1454 996.945 1452.49 998.617L1413.09 998.617ZM1442.38 1106.48 1438.34 1106.48C1422.69 1106.48 1409.56 1096.02 1409.56 1082.65L1409.56 1079.3 1442.38 1079.3 1442.38 1106.48ZM1451.98 1095.19 1448.44 1095.19 1448.44 1074.7 1423.19 1074.7 1423.19 1071.78C1423.19 1060.49 1432.79 1050.87 1445.92 1048.37 1446.93 1050.46 1448.44 1052.55 1449.96 1054.22 1440.36 1055.06 1432.79 1060.91 1431.27 1068.43L1450.47 1068.43 1458.04 1062.16C1460.06 1063.83 1462.08 1065.09 1464.1 1066.34L1456.02 1073.03 1456.02 1088.5C1465.62 1086.83 1473.19 1079.72 1473.19 1071.36L1473.19 1070.94C1475.72 1071.78 1478.24 1073.03 1480.77 1073.45 1479.25 1085.99 1467.13 1095.19 1451.98 1095.19ZM1562.58 1102.29 1549.45 1091.43C1544.4 1087.24 1542.38 1085.15 1538.85 1080.97L1525.21 1065.51C1517.64 1069.27 1508.55 1070.94 1499.46 1070.94 1498.45 1070.94 1497.94 1070.94 1496.93 1070.94 1496.43 1070.94 1496.43 1070.94 1495.92 1070.94 1495.41 1070.94 1494.91 1070.94 1494.41 1070.94 1493.9 1070.94 1493.39 1070.94 1492.89 1070.94 1492.39 1070.94 1492.39 1070.94 1491.88 1070.94 1491.37 1070.94 1490.87 1070.94 1490.36 1070.94 1489.86 1070.94 1489.86 1070.94 1489.35 1070.94 1488.85 1070.94 1488.34 1070.94 1487.84 1070.52L1487.33 1070.52C1484.3 1070.11 1481.27 1069.27 1478.75 1068.01 1477.74 1067.6 1477.23 1067.6 1476.22 1067.18 1473.19 1065.92 1470.16 1064.25 1467.13 1062.58L1466.63 1062.16C1466.12 1061.74 1466.12 1061.74 1465.62 1061.33L1465.11 1060.91C1464.1 1060.49 1463.6 1059.65 1462.59 1059.24 1462.59 1059.24 1462.59 1059.24 1462.08 1058.82 1459.05 1056.31 1456.02 1052.97 1454 1050.04 1452.49 1047.95 1451.48 1045.86 1450.47 1043.35 1450.47 1043.35 1450.47 1043.35 1450.47 1042.93 1449.46 1042.51 1449.46 1042.1 1449.46 1042.1 1449.46 1041.68 1449.46 1041.68 1448.95 1041.26 1448.95 1040.84 1448.44 1040.01 1448.44 1039.59 1448.44 1039.17 1448.44 1039.17 1447.94 1038.75 1447.94 1038.33 1447.94 1037.92 1447.44 1037.92 1447.44 1037.5 1447.44 1037.5 1447.44 1037.08 1447.44 1036.66 1447.44 1036.24 1447.44 1036.24 1447.44 1035.83 1447.44 1035.83 1447.44 1035.41 1447.44 1034.99 1447.44 1034.99 1447.44 1034.57 1447.44 1034.15 1447.44 1033.32 1447.44 1032.9 1447.44 1032.48 1447.44 1032.48 1447.44 1032.06 1447.44 1031.64 1447.44 1031.23 1447.44 1031.23 1447.44 1030.81 1447.44 1030.81 1447.44 1030.39 1447.44 1029.97 1447.44 1029.55 1447.44 1029.55 1447.44 1029.14 1447.44 1029.14 1447.44 1028.72 1447.44 1028.3 1447.44 1027.88 1447.44 1027.46 1447.44 1027.05 1447.44 1026.63 1447.44 1026.21 1447.44 1025.79 1447.44 1025.37 1447.44 1024.96 1447.44 1024.54 1447.44 1024.54 1447.44 1024.12 1447.44 1023.7 1447.44 1023.28 1447.44 1022.87 1447.44 1022.45 1447.44 1022.45 1447.44 1022.03 1447.44 1021.61 1447.44 1021.19 1447.44 1020.78 1447.44 1020.36 1447.44 1020.36 1447.44 1019.94 1447.44 1019.52 1447.94 1018.69 1447.94 1018.27 1447.94 1017.85 1447.94 1017.85 1447.94 1017.43 1447.94 1017.01 1447.94 1016.59 1448.44 1016.17 1448.44 1015.76 1448.44 1015.76 1448.95 1015.34 1448.95 1014.92 1449.46 1014.5 1449.46 1014.08 1449.46 1013.67 1449.46 1013.25 1449.46 1013.25 1449.46 1012.83 1449.96 1012.41 1449.96 1011.99 1449.96 1011.99 1449.96 1011.58 1450.47 1011.58 1450.97 1011.16 1450.97 1010.74 1451.48 1009.9 1451.48 1009.49 1451.48 1009.49 1451.98 1009.07 1451.98 1008.65 1452.49 1008.23 1452.49 1007.81 1452.49 1007.4 1452.99 1007.4 1452.99 1006.98 1452.99 1006.56 1453.5 1006.14 1454 1005.72 1454 1005.72 1454 1005.31 1454.51 1005.31 1455.01 1004.89 1455.51 1004.05 1455.51 1003.63L1456.02 1003.22C1458.04 1001.13 1460.06 998.617 1462.59 996.945 1463.09 996.527 1463.6 996.109 1464.1 995.691 1464.61 995.273 1465.11 995.273 1465.11 994.855L1465.62 994.437C1466.12 994.019 1466.63 993.601 1467.13 993.183 1468.65 991.929 1470.67 991.093 1472.18 990.257 1473.19 989.839 1474.71 989.003 1475.72 988.585 1476.22 988.167 1476.73 988.167 1477.74 987.749 1478.24 987.331 1479.25 987.331 1479.76 986.913 1481.78 986.077 1484.3 985.659 1486.83 985.241 1486.83 985.241 1486.83 985.241 1487.33 985.241 1487.84 985.241 1488.85 984.823 1489.35 984.823L1489.86 984.823C1490.36 984.823 1490.87 984.823 1491.88 984.405 1492.39 984.405 1492.39 984.405 1492.89 984.405 1493.39 984.405 1493.9 984.405 1494.41 984.405 1494.91 984.405 1495.41 984.405 1495.92 984.405 1496.43 984.405 1496.93 984.405 1496.93 984.405 1497.94 984.405 1498.45 984.405 1499.46 984.405 1500.46 984.405 1500.97 984.405 1501.98 984.405 1502.48 984.405 1502.48 984.405 1502.99 984.405 1503.5 984.405 1504 984.405 1504.5 984.405 1505.01 984.405 1505.52 984.405 1506.02 984.405 1506.52 984.405 1506.52 984.405 1507.03 984.405 1507.54 984.405 1508.04 984.405 1508.55 984.405 1509.05 984.405 1509.05 984.405 1509.56 984.405 1510.06 984.405 1510.57 984.405 1511.07 984.823L1511.58 984.823C1513.6 985.241 1516.12 985.659 1518.14 986.495 1520.67 987.331 1523.19 988.167 1525.72 989.421 1527.74 990.257 1529.76 991.511 1531.78 992.765 1531.78 992.765 1531.78 992.765 1532.28 993.183 1532.79 993.601 1533.29 993.601 1533.8 994.019L1534.3 994.437C1534.81 994.855 1534.81 994.855 1535.31 995.273 1535.82 995.691 1536.32 996.109 1536.83 996.527 1539.86 999.035 1541.88 1001.54 1543.9 1004.05 1543.9 1004.47 1544.4 1004.47 1544.4 1004.89 1544.91 1005.31 1544.91 1005.72 1544.91 1006.14 1544.91 1006.56 1545.41 1006.56 1545.41 1006.98 1545.41 1007.4 1545.92 1007.81 1545.92 1007.81 1545.92 1008.23 1546.42 1008.23 1546.42 1008.65 1546.42 1009.07 1546.93 1009.49 1546.93 1009.49 1546.93 1009.9 1547.43 1009.9 1547.43 1010.32 1547.43 1010.74 1547.94 1011.16 1547.94 1011.16 1547.94 1011.58 1548.44 1011.58 1548.44 1011.99 1548.44 1012.41 1548.95 1012.83 1548.95 1012.83 1548.95 1013.25 1549.45 1013.67 1549.45 1013.67 1549.45 1014.08 1549.45 1014.5 1549.96 1014.5 1549.96 1014.92 1549.96 1015.34 1550.47 1015.34 1550.47 1015.76 1550.47 1016.17 1550.97 1016.17 1550.97 1016.59 1550.97 1017.01 1551.47 1017.43 1551.47 1017.85 1551.47 1018.27 1551.47 1018.27 1551.47 1018.69 1551.47 1019.1 1551.47 1019.52 1551.47 1019.94 1551.47 1019.94 1551.47 1020.36 1551.47 1020.78 1551.47 1021.19 1551.47 1021.61 1551.47 1022.03 1551.47 1022.03 1551.47 1022.45 1551.47 1022.87 1551.47 1023.28 1551.47 1023.7 1551.47 1024.12 1551.47 1024.12 1551.47 1024.54 1551.47 1025.37 1551.47 1025.79 1551.47 1026.63 1551.47 1033.73 1549.45 1040.84 1545.41 1047.11L1563.09 1057.98C1569.15 1061.74 1574.71 1065.51 1579.76 1070.11L1589.86 1078.47 1562.58 1102.29ZM1593.9 1092.26 1577.23 1106.06 1569.15 1108.15 1566.63 1106.06 1572.18 1101.46 1588.85 1087.66 1594.4 1083.06 1596.93 1085.15 1593.9 1092.26Z" fill="#FFFFFF" fill-rule="evenodd" fill-opacity="1"/><text fill="#FFFFFF" fill-opacity="1" font-family="Oracle Sans,Oracle Sans_MSFontService,sans-serif" font-style="normal" font-variant="normal" font-weight="400" font-stretch="normal" font-size="37" text-anchor="start" direction="ltr" writing-mode="lr-tb" unicode-bidi="normal" text-decoration="none" transform="matrix(1 0 0 1 1372.12 1161)">OCI Search with </text><text fill="#FFFFFF" fill-opacity="1" font-family="Oracle Sans,Oracle Sans_MSFontService,sans-serif" font-style="normal" font-variant="normal" font-weight="400" font-stretch="normal" font-size="37" text-anchor="start" direction="ltr" writing-mode="lr-tb" unicode-bidi="normal" text-decoration="none" transform="matrix(1 0 0 1 1401.06 1205)">OpenSearch</text><text fill="#FFFFFF" fill-opacity="1" font-family="Oracle Sans,Oracle Sans_MSFontService,sans-serif" font-style="normal" font-variant="normal" font-weight="400" font-stretch="normal" font-size="37" text-anchor="start" direction="ltr" writing-mode="lr-tb" unicode-bidi="normal" text-decoration="none" transform="matrix(1 0 0 1 2170.12 1189)">Speedy in</text><text fill="#FFFFFF" fill-opacity="1" font-family="Oracle Sans,Oracle Sans_MSFontService,sans-serif" font-style="normal" font-variant="normal" font-weight="400" font-stretch="normal" font-size="37" text-anchor="start" direction="ltr" writing-mode="lr-tb" unicode-bidi="normal" text-decoration="none" transform="matrix(1 0 0 1 2332.26 1189)">-</text><text fill="#FFFFFF" fill-opacity="1" font-family="Oracle Sans,Oracle Sans_MSFontService,sans-serif" font-style="normal" font-variant="normal" font-weight="400" font-stretch="normal" font-size="37" text-anchor="start" direction="ltr" writing-mode="lr-tb" unicode-bidi="normal" text-decoration="none" transform="matrix(1 0 0 1 2167.53 1233)">application </text><text fill="#FFFFFF" fill-opacity="1" font-family="Oracle Sans,Oracle Sans_MSFontService,sans-serif" font-style="normal" font-variant="normal" font-weight="400" font-stretch="normal" font-size="37" text-anchor="start" direction="ltr" writing-mode="lr-tb" unicode-bidi="normal" text-decoration="none" transform="matrix(1 0 0 1 2204.2 1277)">search</text><text fill="#FFFFFF" fill-opacity="1" font-family="Oracle Sans,Oracle Sans_MSFontService,sans-serif" font-style="normal" font-variant="normal" font-weight="400" font-stretch="normal" font-size="37" text-anchor="start" direction="ltr" writing-mode="lr-tb" unicode-bidi="normal" text-decoration="none" transform="matrix(1 0 0 1 2423.44 1193)">Monitor health, </text><text fill="#FFFFFF" fill-opacity="1" font-family="Oracle Sans,Oracle Sans_MSFontService,sans-serif" font-style="normal" font-variant="normal" font-weight="400" font-stretch="normal" font-size="37" text-anchor="start" direction="ltr" writing-mode="lr-tb" unicode-bidi="normal" text-decoration="none" transform="matrix(1 0 0 1 2467.55 1237)">security &amp; </text><text fill="#FFFFFF" fill-opacity="1" font-family="Oracle Sans,Oracle Sans_MSFontService,sans-serif" font-style="normal" font-variant="normal" font-weight="400" font-stretch="normal" font-size="37" text-anchor="start" direction="ltr" writing-mode="lr-tb" unicode-bidi="normal" text-decoration="none" transform="matrix(1 0 0 1 2443.49 1281)">performance</text><g><g><g><path d="M202.477 166.465C220.754 166.472 235.575 151.661 235.582 133.383 235.589 115.107 220.778 100.285 202.5 100.279 184.224 100.273 169.403 115.083 169.396 133.36 169.396 133.368 169.396 133.375 169.396 133.383 169.421 151.643 184.217 166.439 202.477 166.465ZM202.477 109.596C215.614 109.59 226.269 120.235 226.276 133.372 226.283 146.509 215.637 157.164 202.5 157.171 189.363 157.178 178.708 146.532 178.701 133.395 178.701 133.392 178.701 133.387 178.701 133.383 178.714 120.256 189.349 109.615 202.477 109.596ZM202.477 125.881 202.477 116.575C211.757 116.582 219.278 124.103 219.285 133.383L209.98 133.383C209.98 129.24 206.62 125.881 202.477 125.881ZM129.196 141.468 136.861 136.187C146.061 149.822 152.419 165.171 155.554 181.319 159.617 173.043 165.328 165.684 172.339 159.695 174.41 162.062 176.753 164.178 179.318 165.999 171.302 172.517 165.187 181.071 161.614 190.764L147.726 190.764C145.155 172.455 138.792 155.403 129.173 141.468ZM116.54 126.788 122.857 119.949C126.538 123.367 129.945 127.07 133.046 131.022L125.73 136.768C122.934 133.204 119.862 129.867 116.54 126.788ZM112.19 123.054C110.326 121.558 108.385 120.16 106.374 118.867L111.399 111.027C113.644 112.469 115.877 114.063 118.018 115.761ZM101.721 116.075C99.9881 115.156 98.2317 114.319 96.4404 113.574L100.035 105.048C102.07 105.897 104.106 106.874 106.095 107.921ZM265.208 230.312 265.208 81.4236 69.7916 81.4236 69.7916 230.312 140.351 230.312 138.28 245.434 129.115 245.434 119.809 250.087 119.809 254.739 216.354 254.739 216.354 250.087 207.048 245.434 197.883 245.434 195.812 230.312ZM255.903 90.7291 255.903 197.743 79.0972 197.743 79.0972 90.7291ZM79.0972 207.048 255.903 207.048 255.903 221.007 79.0972 221.007ZM188.437 245.434 147.726 245.434 149.784 230.312 186.472 230.312Z" fill="#FFFFFF" fill-rule="nonzero" fill-opacity="1" transform="matrix(1.0017 0 0 1 2681.71 852)"/></g></g></g><text fill="#FFFFFF" fill-opacity="1" font-family="Oracle Sans,Oracle Sans_MSFontService,sans-serif" font-style="normal" font-variant="normal" font-weight="400" font-stretch="normal" font-size="37" text-anchor="start" direction="ltr" writing-mode="lr-tb" unicode-bidi="normal" text-decoration="none" transform="matrix(1 0 0 1 2750.66 1189)">Visualize your </text><text fill="#FFFFFF" fill-opacity="1" font-family="Oracle Sans,Oracle Sans_MSFontService,sans-serif" font-style="normal" font-variant="normal" font-weight="400" font-stretch="normal" font-size="37" text-anchor="start" direction="ltr" writing-mode="lr-tb" unicode-bidi="normal" text-decoration="none" transform="matrix(1 0 0 1 2732.32 1233)">data in real time </text><text fill="#FFFFFF" fill-opacity="1" font-family="Oracle Sans,Oracle Sans_MSFontService,sans-serif" font-style="normal" font-variant="normal" font-weight="400" font-stretch="normal" font-size="37" text-anchor="start" direction="ltr" writing-mode="lr-tb" unicode-bidi="normal" text-decoration="none" transform="matrix(1 0 0 1 2746.94 1277)">Out of the box </text><text fill="#FFFFFF" fill-opacity="1" font-family="Oracle Sans,Oracle Sans_MSFontService,sans-serif" font-style="normal" font-variant="normal" font-weight="400" font-stretch="normal" font-size="37" text-anchor="start" direction="ltr" writing-mode="lr-tb" unicode-bidi="normal" text-decoration="none" transform="matrix(1 0 0 1 2766.7 1321)">Dashboards </text><text fill="#FFFFFF" fill-opacity="1" font-family="Oracle Sans Tab,Oracle Sans Tab_MSFontService,sans-serif" font-style="normal" font-variant="normal" font-weight="700" font-stretch="normal" font-size="41" text-anchor="start" direction="ltr" writing-mode="lr-tb" unicode-bidi="normal" text-decoration="none" transform="matrix(1 0 0 1 832.152 1193)">Real</text><text fill="#FFFFFF" fill-opacity="1" font-family="Oracle Sans Tab,Oracle Sans Tab_MSFontService,sans-serif" font-style="normal" font-variant="normal" font-weight="700" font-stretch="normal" font-size="41" text-anchor="start" direction="ltr" writing-mode="lr-tb" unicode-bidi="normal" text-decoration="none" transform="matrix(1 0 0 1 917.516 1193)">-</text><text fill="#FFFFFF" fill-opacity="1" font-family="Oracle Sans Tab,Oracle Sans Tab_MSFontService,sans-serif" font-style="normal" font-variant="normal" font-weight="700" font-stretch="normal" font-size="41" text-anchor="start" direction="ltr" writing-mode="lr-tb" unicode-bidi="normal" text-decoration="none" transform="matrix(1 0 0 1 934.704 1193)">time </text><text fill="#FFFFFF" fill-opacity="1" font-family="Oracle Sans Tab,Oracle Sans Tab_MSFontService,sans-serif" font-style="normal" font-variant="normal" font-weight="700" font-stretch="normal" font-size="41" text-anchor="start" direction="ltr" writing-mode="lr-tb" unicode-bidi="normal" text-decoration="none" transform="matrix(1 0 0 1 861.095 1243)">Search</text><path d="M840 980 840 988 894.492 988C895.721 985.474 897.362 982.526 899 980 899 980 840 980 840 980Z" fill="#FFFFFF" fill-rule="evenodd" fill-opacity="1"/><path d="M840 1008 840 1016 887.18 1016C887.18 1013.47 887.59 1010.53 888 1008L840 1008Z" fill="#FFFFFF" fill-rule="evenodd" fill-opacity="1"/><path d="M840 1036 840 1044 893 1044C891.756 1041.47 890.928 1038.95 890.515 1036L840 1036Z" fill="#FFFFFF" fill-rule="evenodd" fill-opacity="1"/><path d="M918.237 1054.28C928.153 1064.09 941.373 1069 954.181 1069 967.403 1069 980.211 1064.09 990.127 1054.28 1009.96 1034.65 1009.96 1002.35 990.127 982.721 970.295 963.093 937.654 963.093 917.824 982.721 897.991 1002.35 897.991 1034.65 918.237 1054.28ZM922.366 987.219C939.721 970.044 968.23 970.044 985.582 987.219 1002.93 1004.39 1002.93 1032.61 985.582 1049.78 968.23 1066.96 939.721 1066.96 922.366 1049.78 905.014 1032.61 905.014 1004.39 922.366 987.219Z" fill="#FFFFFF" fill-rule="evenodd" fill-opacity="1"/><path d="M919.242 1070.37C929.587 1077.39 942 1081.11 954.414 1081.11 970.552 1081.11 986.691 1074.91 998.69 1062.93 1023.1 1038.55 1023.1 998.876 998.69 974.494 974.277 950.112 934.551 949.699 910.138 974.081 888.62 995.57 886.138 1029.04 902.276 1053.43L898.551 1056.32 885.311 1066.24C880.345 1069.95 875.379 1074.09 871.241 1078.63L858 1091.86 881.172 1115 894.413 1101.78C898.965 1097.23 903.104 1092.69 906.826 1087.73L916.758 1074.5 919.242 1070.37ZM914.69 978.627C936.621 956.724 972.62 956.724 994.552 978.627 1016.48 1000.53 1016.48 1036.48 994.552 1058.39 983.379 1069.54 968.898 1074.91 954.827 1074.91 940.344 1074.91 925.862 1069.54 915.104 1058.39 892.345 1036.48 892.345 1000.53 914.69 978.627ZM901.447 1083.59C897.724 1088.14 893.999 1092.69 889.861 1097.23L880.759 1106.32 866.688 1091.86 875.793 1082.77C879.931 1078.63 884.481 1074.5 889.447 1071.19L902.69 1061.28 906.412 1058.39C907.656 1060.04 908.897 1061.28 910.138 1062.52 911.378 1063.76 913.035 1065 914.276 1066.24L911.378 1069.95 901.447 1083.59Z" fill="#FFFFFF" fill-rule="evenodd" fill-opacity="1"/><path d="M854.099 1095 852 1097.1 854.099 1104.22 868.355 1118.48 875.483 1121 878 1118.48 854.099 1095Z" fill="#FFFFFF" fill-rule="evenodd" fill-opacity="1"/><path d="M932.622 1041.33C937.114 1041.33 940.792 1037.62 940.792 1033.08L940.792 1032.67 951.414 1026.48 951.414 1036.38C947.328 1038.03 944.878 1041.74 944.878 1046.28 944.878 1052.05 949.78 1057 955.5 1057 961.22 1057 966.122 1052.05 966.122 1046.28 966.122 1041.74 963.261 1038.03 959.584 1036.38L959.584 1026.48 970.206 1032.67 970.206 1033.08C970.206 1037.62 973.884 1041.33 978.378 1041.33 982.872 1041.33 986.548 1037.62 986.548 1033.08 986.548 1028.54 982.872 1024.83 978.378 1024.83 976.745 1024.83 975.517 1025.24 974.292 1026.07L963.261 1019.47 971.433 1014.93C973.475 1016.58 975.517 1017.41 978.378 1017.41 984.098 1017.41 989 1012.46 989 1006.68 989 1000.91 984.098 995.961 978.378 995.961 972.658 995.961 967.756 1000.91 967.756 1006.68 967.756 1007.1 967.756 1007.51 967.756 1007.92L959.584 1012.46 959.584 999.672C962.036 998.435 963.67 995.548 963.67 992.249 963.67 987.712 959.994 984 955.5 984 951.006 984 947.328 987.712 947.328 992.249 947.328 995.548 948.964 998.023 951.414 999.672L951.414 1012.46 943.242 1007.92C943.242 1007.51 943.242 1007.1 943.242 1006.68 943.242 1000.91 938.342 995.961 932.622 995.961 926.9 995.961 922 1000.91 922 1006.68 922 1012.46 926.9 1017.41 932.622 1017.41 935.072 1017.41 937.522 1016.58 939.567 1014.93L947.736 1019.47 936.706 1026.07C935.481 1025.24 934.256 1024.83 932.622 1024.83 928.128 1024.83 924.45 1028.54 924.45 1033.08 924.45 1037.62 928.128 1041.33 932.622 1041.33ZM959.994 1046.28C959.994 1048.75 957.95 1050.81 955.5 1050.81 953.047 1050.81 951.006 1048.75 951.006 1046.28 951.006 1043.8 953.047 1041.74 955.5 1041.74 957.95 1041.74 959.994 1043.8 959.994 1046.28ZM973.884 1006.68C973.884 1004.21 975.925 1002.15 978.378 1002.15 980.828 1002.15 982.872 1004.21 982.872 1006.68 982.872 1009.16 980.828 1011.22 978.378 1011.22 975.925 1011.22 973.884 1009.16 973.884 1006.68ZM932.622 1011.22C930.169 1011.22 928.128 1009.16 928.128 1006.68 928.128 1004.21 930.169 1002.15 932.622 1002.15 935.072 1002.15 937.114 1004.21 937.114 1006.68 937.114 1009.16 935.072 1011.22 932.622 1011.22Z" fill="#FFFFFF" fill-rule="evenodd" fill-opacity="1"/><path d="M1524 1006.65 1518.44 1002 1489.66 1025.69 1478.55 1015.96 1473 1020.62 1489.66 1035 1524 1006.65Z" fill="#FFFFFF" fill-rule="evenodd" fill-opacity="1"/><path d="M1527.93 1010 1489.88 1041.7 1468.07 1023.95 1463 1028.18 1489.88 1051 1533 1014.65 1527.93 1010Z" fill="#FFFFFF" fill-rule="evenodd" fill-opacity="1"/><text fill="#FFFFFF" fill-opacity="1" font-family="Oracle Sans,Oracle Sans_MSFontService,sans-serif" font-style="normal" font-variant="normal" font-weight="400" font-stretch="normal" font-size="37" text-anchor="start" direction="ltr" writing-mode="lr-tb" unicode-bidi="normal" text-decoration="none" transform="matrix(1 0 0 1 3025.03 1190)">Flexible shapes for </text><text fill="#FFFFFF" fill-opacity="1" font-family="Oracle Sans,Oracle Sans_MSFontService,sans-serif" font-style="normal" font-variant="normal" font-weight="400" font-stretch="normal" font-size="37" text-anchor="start" direction="ltr" writing-mode="lr-tb" unicode-bidi="normal" text-decoration="none" transform="matrix(1 0 0 1 3065.14 1234)">the optimized </text><text fill="#FFFFFF" fill-opacity="1" font-family="Oracle Sans,Oracle Sans_MSFontService,sans-serif" font-style="normal" font-variant="normal" font-weight="400" font-stretch="normal" font-size="37" text-anchor="start" direction="ltr" writing-mode="lr-tb" unicode-bidi="normal" text-decoration="none" transform="matrix(1 0 0 1 3072.29 1278)">performance</text><path d="M3256.24 938.429C3258.19 938.429 3260.06 939.208 3261.44 940.595 3262.82 941.982 3263.59 943.863 3263.59 945.824L3263.59 1108.17C3263.59 1110.14 3262.82 1112.02 3261.44 1113.41 3260.06 1114.79 3258.19 1115.57 3256.24 1115.57L3094.76 1115.57C3092.81 1115.57 3090.94 1114.79 3089.56 1113.41 3088.18 1112.02 3087.41 1110.14 3087.41 1108.17L3087.41 945.824C3087.41 943.863 3088.18 941.982 3089.56 940.595 3090.94 939.208 3092.81 938.429 3094.76 938.429L3256.24 938.429ZM3256.24 934 3094.76 934C3091.64 934.012 3088.66 935.261 3086.46 937.476 3084.25 939.691 3083.01 942.692 3083 945.824L3083 1108.17C3083.01 1111.31 3084.25 1114.31 3086.46 1116.52 3088.66 1118.74 3091.64 1119.99 3094.76 1120L3256.24 1120C3259.36 1119.99 3262.34 1118.74 3264.54 1116.52 3266.75 1114.31 3267.99 1111.31 3268 1108.17L3268 945.824C3267.99 942.692 3266.75 939.691 3264.54 937.476 3262.34 935.261 3259.36 934.012 3256.24 934Z" fill="#FFFFFF" fill-rule="evenodd" fill-opacity="1"/><path d="M3256.65 939 3095.35 939C3093.4 939 3091.53 939.774 3090.15 941.153 3088.77 942.53 3088 944.399 3088 946.348L3088 1107.65C3088 1109.6 3088.77 1111.47 3090.15 1112.85 3091.53 1114.23 3093.4 1115 3095.35 1115L3113.7 1115C3112.25 1113.12 3111.41 1110.85 3111.28 1108.49L3095.35 1108.49C3095.13 1108.48 3094.92 1108.38 3094.77 1108.23 3094.62 1108.08 3094.52 1107.87 3094.51 1107.65L3094.51 946.348C3094.52 946.13 3094.62 945.923 3094.77 945.769 3094.92 945.614 3095.13 945.523 3095.35 945.512L3256.65 945.512C3256.87 945.523 3257.08 945.614 3257.23 945.769 3257.39 945.923 3257.48 946.13 3257.49 946.348L3257.49 1107.65C3257.48 1107.87 3257.39 1108.08 3257.23 1108.23 3257.08 1108.38 3256.87 1108.48 3256.65 1108.49L3240.72 1108.49C3240.59 1110.85 3239.75 1113.12 3238.3 1115L3256.65 1115C3258.6 1115 3260.47 1114.23 3261.85 1112.85 3263.23 1111.47 3264 1109.6 3264 1107.65L3264 946.348C3264 944.399 3263.23 942.53 3261.85 941.153 3260.47 939.774 3258.6 939 3256.65 939Z" fill="#FFFFFF" fill-rule="evenodd" fill-opacity="1"/><path d="M3112 963 3112 997C3113.29 994.253 3115.53 992.079 3118.29 990.891L3118.29 969.375 3144.53 969.375 3144.53 989.872 3151 989.872 3151 963 3112 963Z" fill="#FFFFFF" fill-rule="evenodd" fill-opacity="1"/><path d="M3156 963 3156 990 3162.5 990 3162.5 969.54 3188.5 969.54 3188.5 990 3195 990 3195 963 3156 963Z" fill="#FFFFFF" fill-rule="evenodd" fill-opacity="1"/><path d="M3200 963 3200 990.191 3206.46 990.191 3206.46 969.408 3233.36 969.408 3233.36 990.859C3236.27 992.017 3238.63 994.206 3240 997L3240 963 3200 963Z" fill="#FFFFFF" fill-rule="evenodd" fill-opacity="1"/><path d="M3236 1107.64 3236 1002.32C3235.99 1000.37 3235.21 998.512 3233.83 997.141 3232.45 995.77 3230.58 995 3228.64 995L3123.36 995C3121.42 995 3119.55 995.77 3118.17 997.141 3116.79 998.512 3116.01 1000.37 3116 1002.32L3116 1107.64C3116 1109.59 3116.78 1111.46 3118.16 1112.84 3119.54 1114.22 3121.41 1115 3123.36 1115L3133.15 1115C3131.74 1113.1 3130.9 1110.83 3130.72 1108.48L3123.36 1108.48C3123.14 1108.46 3122.94 1108.37 3122.78 1108.22 3122.63 1108.06 3122.54 1107.86 3122.53 1107.64L3122.53 1002.32C3122.54 1002.1 3122.63 1001.9 3122.79 1001.75 3122.94 1001.61 3123.15 1001.52 3123.36 1001.52L3228.64 1001.52C3228.85 1001.52 3229.06 1001.61 3229.22 1001.75 3229.37 1001.9 3229.46 1002.1 3229.48 1002.32L3229.48 1107.64C3229.46 1107.86 3229.37 1108.06 3229.22 1108.22 3229.06 1108.37 3228.86 1108.46 3228.64 1108.48L3221.28 1108.48C3221.1 1110.83 3220.26 1113.1 3218.85 1115L3228.64 1115C3229.61 1115 3230.56 1114.81 3231.45 1114.44 3232.35 1114.07 3233.16 1113.53 3233.84 1112.84 3234.53 1112.16 3235.07 1111.35 3235.44 1110.45 3235.81 1109.56 3236 1108.6 3236 1107.64Z" fill="#FFFFFF" fill-rule="evenodd" fill-opacity="1"/><path d="M3135 1015 3135 1032C3136.91 1030.6 3139.19 1029.76 3141.56 1029.59L3141.56 1021.48 3150.44 1021.48 3150.44 1029.59 3157 1029.59 3157 1015 3135 1015Z" fill="#FFFFFF" fill-rule="evenodd" fill-opacity="1"/><path d="M3165 1015 3165 1029 3171.61 1029 3171.61 1021.22 3180.39 1021.22 3180.39 1029 3187 1029 3187 1015 3165 1015Z" fill="#FFFFFF" fill-rule="evenodd" fill-opacity="1"/><path d="M3194 1015 3194 1029.59 3200.57 1029.59 3200.57 1021.48 3209.44 1021.48 3209.44 1029.59C3211.81 1029.76 3214.09 1030.6 3216 1032L3216 1015 3194 1015Z" fill="#FFFFFF" fill-rule="evenodd" fill-opacity="1"/><path d="M3216 1107.62 3216 1041.34C3216 1040.37 3215.81 1039.41 3215.44 1038.52 3215.07 1037.63 3214.52 1036.81 3213.84 1036.13 3213.15 1035.45 3212.34 1034.91 3211.44 1034.55 3210.55 1034.18 3209.59 1033.99 3208.62 1034L3142.38 1034C3141.41 1033.99 3140.45 1034.18 3139.56 1034.55 3138.66 1034.91 3137.85 1035.45 3137.16 1036.13 3136.48 1036.81 3135.93 1037.63 3135.56 1038.52 3135.19 1039.41 3135 1040.37 3135 1041.34L3135 1107.62C3135 1109.58 3135.78 1111.46 3137.16 1112.84 3138.54 1114.22 3140.42 1115 3142.38 1115L3208.62 1115C3210.58 1115 3212.46 1114.22 3213.84 1112.84 3215.22 1111.46 3216 1109.58 3216 1107.62ZM3141.54 1107.62 3141.54 1041.34C3141.55 1041.12 3141.64 1040.92 3141.8 1040.77 3141.95 1040.62 3142.16 1040.54 3142.38 1040.54L3208.62 1040.54C3208.84 1040.54 3209.05 1040.62 3209.2 1040.77 3209.36 1040.92 3209.45 1041.12 3209.46 1041.34L3209.46 1107.62C3209.45 1107.84 3209.36 1108.05 3209.21 1108.2 3209.05 1108.36 3208.84 1108.45 3208.62 1108.46L3142.38 1108.46C3142.16 1108.45 3141.95 1108.36 3141.79 1108.2 3141.64 1108.05 3141.55 1107.84 3141.54 1107.62Z" fill="#FFFFFF" fill-rule="evenodd" fill-opacity="1"/><path d="M3203 1087 3149 1087 3149 1101 3203 1101 3203 1087Z" fill="#FFFFFF" fill-rule="evenodd" fill-opacity="1"/><path d="M3164 1048 3149 1048 3149 1063 3164 1063 3164 1048Z" fill="#FFFFFF" fill-rule="evenodd" fill-opacity="1"/><path d="M3183 1048 3169 1048 3169 1063 3183 1063 3183 1048Z" fill="#FFFFFF" fill-rule="evenodd" fill-opacity="1"/><path d="M3164 1068 3149 1068 3149 1082 3164 1082 3164 1068Z" fill="#FFFFFF" fill-rule="evenodd" fill-opacity="1"/><path d="M3183 1068 3169 1068 3169 1082 3183 1082 3183 1068Z" fill="#FFFFFF" fill-rule="evenodd" fill-opacity="1"/><path d="M3202 1048 3188 1048 3188 1063 3202 1063 3202 1048Z" fill="#FFFFFF" fill-rule="evenodd" fill-opacity="1"/><path d="M3202 1068 3188 1068 3188 1082 3202 1082 3202 1068Z" fill="#FFFFFF" fill-rule="evenodd" fill-opacity="1"/><path d="M2292.19 1066.94C2307.11 1066.93 2321.59 1061.96 2333.33 1052.83 2345.09 1043.69 2353.41 1030.91 2357.02 1016.52 2360.62 1002.13 2359.29 986.959 2353.2 973.414 2347.14 959.87 2336.7 948.732 2323.52 941.773 2310.34 934.815 2295.21 932.434 2280.52 935.011 2265.85 937.588 2252.44 944.974 2242.46 955.994 2232.47 967.014 2226.49 981.036 2225.45 995.828 2224.4 1010.62 2228.38 1025.33 2236.72 1037.63L2232.7 1040.61 2218.5 1051.19C2213.13 1055.2 2208.06 1059.6 2203.34 1064.35L2189 1078.47 2213.73 1103 2228.08 1088.74C2232.82 1084.05 2237.23 1079.03 2241.3 1073.74L2251.95 1059.65 2254.99 1055.62C2265.97 1062.98 2278.94 1066.92 2292.19 1066.94ZM2334.72 958.13C2343.14 966.499 2348.88 977.163 2351.21 988.771 2353.53 1000.38 2352.32 1012.41 2347.77 1023.35 2343.21 1034.28 2335.49 1043.63 2325.61 1050.2 2315.71 1056.78 2304.06 1060.29 2292.16 1060.29 2280.26 1060.29 2268.61 1056.78 2258.71 1050.2 2248.83 1043.63 2241.12 1034.28 2236.56 1023.35 2232 1012.41 2230.79 1000.38 2233.12 988.771 2235.44 977.163 2241.19 966.499 2249.6 958.13 2260.9 946.929 2276.22 940.639 2292.16 940.639 2308.11 940.639 2323.43 946.929 2334.72 958.13ZM2246.46 1055.66 2235.84 1069.74C2232 1074.79 2227.84 1079.57 2223.33 1084.05L2213.73 1093.61 2198.51 1078.47 2208.34 1068.91C2212.83 1064.43 2217.64 1060.27 2222.73 1056.49L2236.89 1045.92 2240.91 1042.94C2242.23 1044.52 2243.6 1046.01 2245.09 1047.32 2246.49 1048.77 2247.97 1050.15 2249.51 1051.45L2246.46 1055.66Z" fill="#FFFFFF" fill-rule="evenodd" fill-opacity="1"/><path d="M2252.02 1040.87C2259.63 1048.57 2269.35 1053.81 2279.9 1055.94 2290.47 1058.07 2301.43 1056.98 2311.37 1052.82 2321.32 1048.66 2329.84 1041.61 2335.84 1032.56 2341.82 1023.52 2345 1012.88 2345 1002 2345 991.12 2341.82 980.484 2335.84 971.438 2329.84 962.392 2321.32 955.343 2311.37 951.181 2301.43 947.02 2290.47 945.934 2279.9 948.061 2269.35 950.188 2259.63 955.431 2252.02 963.128 2246.94 968.22 2242.92 974.276 2240.15 980.947 2237.41 987.619 2236 994.774 2236 1002 2236 1009.23 2237.41 1016.38 2240.15 1023.05 2242.92 1029.72 2246.94 1035.78 2252.02 1040.87ZM2324.32 1036.09C2315.78 1044.67 2304.36 1049.68 2292.33 1050.12 2280.29 1050.56 2268.54 1046.4 2259.42 1038.47 2250.29 1030.54 2244.47 1019.42 2243.11 1007.34 2241.75 995.26 2244.93 983.106 2252.06 973.305 2253.33 975.949 2255.29 978.181 2257.74 979.746 2260.21 981.31 2263.05 982.145 2265.96 982.155L2267.48 982.155 2273.9 1002.02C2271.66 1003.33 2269.79 1005.17 2268.45 1007.39 2267.11 1009.61 2266.33 1012.13 2266.19 1014.72 2266.05 1017.32 2266.58 1019.91 2267.69 1022.26 2268.79 1024.6 2270.46 1026.63 2272.53 1028.16 2274.61 1029.7 2277.03 1030.68 2279.6 1031.02 2282.16 1031.36 2284.74 1031.06 2287.14 1030.13 2289.57 1029.2 2291.69 1027.69 2293.37 1025.71 2295.06 1023.74 2296.21 1021.38 2296.74 1018.84L2317.44 1018.84C2318.07 1021.7 2319.5 1024.33 2321.53 1026.42 2323.58 1028.51 2326.17 1029.97 2329.01 1030.65 2327.58 1032.58 2326.01 1034.4 2324.32 1036.09ZM2290.53 953.748C2294.97 953.773 2299.4 954.398 2303.67 955.606L2303.67 964.456C2301.59 964.915 2299.63 965.81 2297.9 967.082 2296.17 968.355 2294.71 969.977 2293.65 971.845L2281.23 967.819C2281.23 967.332 2281.23 966.845 2281.23 966.358 2281.23 964.209 2280.8 962.084 2279.94 960.12L2288.69 953.615 2290.53 953.748ZM2332.58 1024.28C2330.85 1024.28 2329.12 1023.76 2327.69 1022.77 2326.24 1021.79 2325.11 1020.39 2324.44 1018.75 2324 1017.68 2323.79 1016.54 2323.79 1015.38 2323.79 1014.23 2324 1013.09 2324.44 1012.02 2324.62 1011.54 2324.83 1011.09 2325.11 1010.65 2326.33 1008.69 2328.27 1007.29 2330.48 1006.76 2330.97 1006.62 2331.45 1006.54 2331.94 1006.54L2332.58 1006.54C2333.51 1006.52 2334.43 1006.67 2335.31 1006.98 2336.23 1007.29 2337.11 1007.76 2337.89 1008.35 2337.18 1013.92 2335.49 1019.33 2332.95 1024.32L2332.58 1024.28ZM2334.08 999.854 2332.58 999.854C2330.48 999.865 2328.41 1000.3 2326.47 1001.14L2318.67 990.252C2321.16 987.38 2322.54 983.684 2322.57 979.854 2322.57 979.367 2322.57 978.881 2322.57 978.394L2330.67 975.783C2333.65 980.369 2335.79 985.446 2337.01 990.783L2334.08 999.854ZM2287.86 1001.05C2285.92 1000.21 2283.84 999.776 2281.72 999.766L2280.24 999.766 2273.85 979.898C2276.13 978.529 2278.03 976.595 2279.36 974.279L2291.76 978.305C2291.76 978.792 2291.76 979.279 2291.76 979.766 2291.76 983.583 2293.14 987.268 2295.66 990.119L2287.86 1001.05ZM2290.53 1015.38C2290.51 1016.54 2290.3 1017.68 2289.87 1018.75 2289.1 1020.64 2287.7 1022.21 2285.92 1023.18 2284.12 1024.15 2282.06 1024.46 2280.08 1024.07 2278.07 1023.67 2276.3 1022.59 2275 1021 2273.71 1019.42 2273.02 1017.43 2273.02 1015.38 2272.99 1014.09 2273.27 1012.81 2273.8 1011.63 2274.36 1010.45 2275.14 1009.41 2276.11 1008.57 2277.01 1007.85 2278 1007.29 2279.09 1006.93 2279.96 1006.63 2280.89 1006.48 2281.81 1006.49L2282.48 1006.49C2282.94 1006.5 2283.43 1006.57 2283.86 1006.71 2284.97 1006.96 2286.03 1007.45 2286.93 1008.13 2287.86 1008.81 2288.67 1009.67 2289.27 1010.65 2289.54 1011.06 2289.77 1011.51 2289.96 1011.98 2290.35 1013.07 2290.56 1014.22 2290.53 1015.38ZM2301.01 994.19C2302.95 995.027 2305.05 995.463 2307.17 995.473 2309.3 995.48 2311.37 995.043 2313.31 994.19L2321.21 1004.99C2319.43 1006.99 2318.21 1009.41 2317.61 1012.02L2296.74 1012.02C2296.19 1009.42 2294.97 1007.02 2293.21 1005.03L2301.01 994.19ZM2298.34 979.854C2298.34 977.766 2299.05 975.744 2300.39 974.146 2301.27 973.053 2302.4 972.189 2303.67 971.624 2305.79 970.751 2308.17 970.751 2310.29 971.624 2311.63 972.164 2312.83 973.03 2313.75 974.146 2315.09 975.744 2315.81 977.766 2315.81 979.854 2315.81 979.854 2315.81 980.297 2315.81 980.562 2315.71 981.992 2315.25 983.373 2314.49 984.588 2313.27 986.549 2311.35 987.947 2309.11 988.482 2308.44 988.66 2307.75 988.749 2307.06 988.748 2306.34 988.752 2305.63 988.663 2304.96 988.482 2302.7 987.936 2300.78 986.521 2299.56 984.544 2298.82 983.343 2298.36 981.977 2298.24 980.562 2298.34 980.341 2298.29 980.075 2298.29 979.854L2298.34 979.854ZM2320.49 972.022C2319.43 970.154 2317.98 968.532 2316.27 967.259 2314.54 965.987 2312.55 965.093 2310.47 964.633L2310.47 958.128C2315.64 960.501 2320.35 963.798 2324.37 967.863 2325.06 968.571 2325.75 969.323 2326.42 970.119L2320.49 972.022ZM2270.64 958.748C2271.59 959.505 2272.4 960.436 2273.02 961.491 2273.66 962.419 2274.15 963.472 2274.4 964.589 2274.56 965.021 2274.68 965.465 2274.75 965.916 2274.75 965.916 2274.75 966.358 2274.75 966.58 2274.75 968.674 2274.01 970.696 2272.65 972.287 2272.35 972.688 2271.98 973.058 2271.61 973.394 2270.73 974.117 2269.74 974.672 2268.68 975.031 2267.78 975.335 2266.86 975.485 2265.91 975.473L2265.29 975.473C2263.21 975.334 2261.25 974.445 2259.75 972.969 2258.25 971.492 2257.32 969.524 2257.14 967.42 2260.81 963.802 2265.06 960.813 2269.67 958.571 2269.99 958.675 2270.29 958.808 2270.59 958.969L2270.64 958.748Z" fill="#FFFFFF" fill-rule="evenodd" fill-opacity="1"/><path d="M2184.58 1082 2182 1084.43 2184.58 1091.81 2199.8 1106.53 2207.44 1109 2210 1106.57 2184.58 1082Z" fill="#FFFFFF" fill-rule="evenodd" fill-opacity="1"/><path d="M2623.06 938 2461.5 938C2457.53 938 2454 941.54 2454 945.522L2454 1107.92C2454 1111.46 2457.53 1115 2461.5 1115L2487.55 1115 2505.64 1115 2533.89 1115 2551.99 1115 2580.24 1115 2598.34 1115 2623.5 1115C2627.47 1115 2631 1111.46 2631 1107.48L2631 945.522C2630.56 941.54 2627.03 938 2623.06 938ZM2460.62 988.887 2623.94 988.887 2623.94 997.295 2587.3 1025.62 2541.4 1013.22 2495.93 1049.07 2460.62 1032.7 2460.62 988.887ZM2461.5 944.638 2623.5 944.638C2623.94 944.638 2624.38 945.08 2624.38 945.522L2624.38 982.25 2461.06 982.25 2461.06 945.522C2460.62 945.08 2461.06 944.638 2461.5 944.638ZM2494.17 1108.36 2494.17 1080.49 2499.02 1080.49 2499.02 1108.36 2494.17 1108.36ZM2540.07 1108.36 2540.07 1044.64 2544.93 1044.64 2544.93 1108.36 2540.07 1108.36ZM2586.42 1108.36 2586.42 1057.03 2591.27 1057.03 2591.27 1108.8 2586.42 1108.8 2586.42 1108.36ZM2623.06 1108.36 2597.9 1108.36 2597.9 1050.39 2579.8 1050.39 2579.8 1108.36 2551.55 1108.36 2551.55 1038.01 2533.45 1038.01 2533.45 1108.36 2505.2 1108.36 2505.2 1073.85 2487.55 1073.85 2487.55 1108.36 2461.5 1108.36C2461.06 1108.36 2460.62 1107.92 2460.62 1107.48L2460.62 1039.78 2496.81 1056.59 2542.72 1020.3 2588.63 1032.7 2623.94 1005.7 2623.94 1107.92C2623.94 1107.92 2623.5 1108.36 2623.06 1108.36Z" fill="#FFFFFF" fill-rule="evenodd" fill-opacity="1"/><path d="M2490 953 2469 953 2469 974 2490 974 2490 953ZM2483.87 967.875 2475.56 967.875 2475.56 959.562 2483.44 959.562 2483.87 967.875Z" fill="#FFFFFF" fill-rule="evenodd" fill-opacity="1"/></g></g></svg>