<svg width="2860" height="550" xmlns="http://www.w3.org/2000/svg" xmlns:xlink="http://www.w3.org/1999/xlink" xml:space="preserve" overflow="hidden"><g transform="translate(-265 -504)"><g><rect x="767" y="584" width="371" height="377" fill="#222A35" fill-opacity="1"/><g><g><g><path d="M382.438 684.875C382.438 701.961 368.586 715.812 351.5 715.812 334.414 715.812 320.563 701.961 320.563 684.875 320.563 667.789 334.414 653.937 351.5 653.937 368.586 653.937 382.438 667.789 382.438 684.875Z" fill="#000000" fill-rule="nonzero" fill-opacity="1"/><path d="M547.438 684.875C547.438 701.961 533.586 715.812 516.5 715.812 499.414 715.812 485.563 701.961 485.563 684.875 485.563 667.789 499.414 653.937 516.5 653.937 533.586 653.937 547.438 667.789 547.438 684.875Z" fill="#000000" fill-rule="nonzero" fill-opacity="1"/><path d="M495.875 834.062 495.875 803.125C495.875 798.312 493.813 793.5 489.688 790.75 481.438 783.875 470.438 779.062 459.438 776.312 451.875 774.25 442.938 772.187 434 772.187 425.75 772.187 416.813 773.562 408.563 776.312 397.563 779.062 387.25 784.562 378.313 790.75 374.188 794.187 372.125 798.312 372.125 803.125L372.125 834.062 495.875 834.062Z" fill="#000000" fill-rule="nonzero" fill-opacity="1"/><path d="M464.938 733C464.938 750.086 451.086 763.937 434 763.937 416.914 763.937 403.063 750.086 403.063 733 403.063 715.914 416.914 702.062 434 702.062 451.086 702.062 464.938 715.914 464.938 733Z" fill="#000000" fill-rule="nonzero" fill-opacity="1"/><path d="M572.188 742.625C563.938 735.75 552.938 730.937 541.938 728.187 534.375 726.125 525.438 724.062 516.5 724.062 508.25 724.062 499.313 725.437 491.063 728.187 486.938 729.562 482.813 730.937 478.688 733L478.688 733.687C478.688 745.375 473.875 756.375 466.313 763.937 479.375 768.062 489.688 773.562 497.938 779.75 500 781.812 502.063 783.187 503.438 785.937L578.375 785.937 578.375 755C578.375 750.187 576.313 745.375 572.188 742.625Z" fill="#000000" fill-rule="nonzero" fill-opacity="1"/><path d="M370.063 779.75 370.063 779.75C379.688 772.875 390.688 767.375 401.688 763.937 394.125 755.687 389.313 745.375 389.313 733.687 389.313 733 389.313 733 389.313 732.312 385.188 730.937 381.063 728.875 376.938 728.187 369.375 726.125 360.438 724.062 351.5 724.062 343.25 724.062 334.313 725.437 326.063 728.187 315.063 731.625 304.75 736.437 295.813 742.625 291.688 745.375 289.625 750.187 289.625 755L289.625 785.937 363.875 785.937C365.938 783.187 367.313 781.812 370.063 779.75Z" fill="#000000" fill-rule="nonzero" fill-opacity="1"/></g></g></g><path d="M614 740.5 716 740.5 716 728 741 753 716 778 716 765.5 614 765.5Z" fill="#7F7F7F" fill-rule="evenodd" fill-opacity="1"/><path d="M1807 540.52C1807 522.007 1822.01 507 1840.52 507L3090.48 507C3108.99 507 3124 522.007 3124 540.52L3124 1016.48C3124 1034.99 3108.99 1050 3090.48 1050L1840.52 1050C1822.01 1050 1807 1034.99 1807 1016.48Z" fill="#4472C4" fill-rule="evenodd" fill-opacity="1"/><text fill="#F2F2F2" fill-opacity="1" font-family="Oracle Sans,Oracle Sans_MSFontService,sans-serif" font-style="normal" font-variant="normal" font-weight="400" font-stretch="normal" font-size="37" text-anchor="start" direction="ltr" writing-mode="lr-tb" unicode-bidi="normal" text-decoration="none" transform="matrix(1 0 0 1 2492.06 856)">High Availability </text><text fill="#F2F2F2" fill-opacity="1" font-family="Oracle Sans,Oracle Sans_MSFontService,sans-serif" font-style="normal" font-variant="normal" font-weight="400" font-stretch="normal" font-size="37" text-anchor="start" direction="ltr" writing-mode="lr-tb" unicode-bidi="normal" text-decoration="none" transform="matrix(1 0 0 1 2528.45 900)">(99.99% ) &amp; </text><text fill="#F2F2F2" fill-opacity="1" font-family="Oracle Sans,Oracle Sans_MSFontService,sans-serif" font-style="normal" font-variant="normal" font-weight="400" font-stretch="normal" font-size="37" text-anchor="start" direction="ltr" writing-mode="lr-tb" unicode-bidi="normal" text-decoration="none" transform="matrix(1 0 0 1 2466.01 944)">on</text><text fill="#F2F2F2" fill-opacity="1" font-family="Oracle Sans,Oracle Sans_MSFontService,sans-serif" font-style="normal" font-variant="normal" font-weight="400" font-stretch="normal" font-size="37" text-anchor="start" direction="ltr" writing-mode="lr-tb" unicode-bidi="normal" text-decoration="none" transform="matrix(1 0 0 1 2508.98 944)">-</text><text fill="#F2F2F2" fill-opacity="1" font-family="Oracle Sans,Oracle Sans_MSFontService,sans-serif" font-style="normal" font-variant="normal" font-weight="400" font-stretch="normal" font-size="37" text-anchor="start" direction="ltr" writing-mode="lr-tb" unicode-bidi="normal" text-decoration="none" transform="matrix(1 0 0 1 2524.44 944)">demand scaling</text><g><g><g><path d="M161.5 195.146C178.054 195.146 193.923 193.475 206.193 190.435 208.279 189.919 210.197 189.381 211.969 188.809L211.969 179.388C202.884 182.753 185.287 186.173 161.5 186.173Z" fill="#FFFFFF" fill-rule="nonzero" fill-opacity="1" transform="matrix(1 0 0 1 2444 539)"/><path d="M161.5 230.945C178.054 230.945 193.923 229.274 206.193 226.246 208.279 225.73 210.197 225.18 211.969 224.619L211.969 215.199C202.884 218.563 185.287 221.928 161.5 221.928Z" fill="#FFFFFF" fill-rule="nonzero" fill-opacity="1" transform="matrix(1 0 0 1 2444 539)"/><path d="M218.698 156.016 218.698 157.698C217.386 160.12 201.18 168.139 161.5 168.139 121.82 168.139 105.614 160.12 104.302 157.698L104.302 131.51C117.906 138.363 144.004 140.482 161.5 140.482 173.601 140.482 189.807 139.473 203.165 136.591 200.915 134.148 198.933 131.471 197.254 128.605 185.446 130.632 173.48 131.6 161.5 131.499 126.901 131.499 106.153 124.557 104.302 120.71 106.108 116.852 126.856 109.91 161.5 109.91 171.507 109.864 181.506 110.52 191.422 111.872 191.122 109.736 190.968 107.581 190.962 105.424 190.962 104.538 190.962 103.663 191.041 102.788 181.242 101.557 171.376 100.939 161.5 100.937 136.927 100.937 95.3298 105.098 95.3298 120.71 95.3187 120.912 95.3187 121.114 95.3298 121.316 95.3181 121.487 95.3181 121.66 95.3298 121.831L95.3298 229.722C95.3298 244.919 136.927 248.979 161.5 248.979 186.073 248.979 227.67 244.919 227.67 229.722L227.67 150.464C224.588 149.832 221.58 148.876 218.698 147.615ZM161.5 240.007C121.82 240.007 105.614 231.988 104.302 229.565L104.302 204.275C117.906 211.004 144.004 213 161.5 213 178.996 213 205.094 210.948 218.698 204.275L218.698 229.565C217.386 231.988 201.18 240.007 161.5 240.007ZM218.698 193.587C217.386 196.009 201.18 204.028 161.5 204.028 121.82 204.028 105.614 196.009 104.302 193.587L104.302 168.386C117.906 175.115 144.004 177.112 161.5 177.112 178.996 177.112 205.094 175.059 218.698 168.386L218.698 193.587Z" fill="#FFFFFF" fill-rule="nonzero" fill-opacity="1" transform="matrix(1 0 0 1 2444 539)"/><path d="M161.5 159.167C178.054 159.167 193.923 157.496 206.193 154.457 208.279 153.941 210.197 153.402 211.969 152.83L211.969 144.004 211.374 143.623C202.133 146.898 184.805 150.195 161.5 150.195Z" fill="#FFFFFF" fill-rule="nonzero" fill-opacity="1" transform="matrix(1 0 0 1 2444 539)"/><path d="M236.945 66.1701C215.266 66.1701 197.692 83.7444 197.692 105.424 197.692 127.103 215.266 144.677 236.945 144.677 258.624 144.677 276.198 127.103 276.198 105.424 276.198 83.7444 258.624 66.1701 236.945 66.1701ZM236.945 135.705C220.221 135.705 206.664 122.148 206.664 105.424 206.664 88.6997 220.221 75.1423 236.945 75.1423 253.669 75.1423 267.226 88.6997 267.226 105.424 267.226 122.148 253.669 135.705 236.945 135.705Z" fill="#FFFFFF" fill-rule="nonzero" fill-opacity="1" transform="matrix(1 0 0 1 2444 539)"/><path d="M241.128 84.1145 232.156 84.1145 232.156 108.014 252.848 119.959 257.334 112.198 241.128 102.833 241.128 84.1145Z" fill="#FFFFFF" fill-rule="nonzero" fill-opacity="1" transform="matrix(1 0 0 1 2444 539)"/></g></g></g><text fill="#F2F2F2" fill-opacity="1" font-family="Oracle Sans,Oracle Sans_MSFontService,sans-serif" font-style="normal" font-variant="normal" font-weight="400" font-stretch="normal" font-size="37" text-anchor="start" direction="ltr" writing-mode="lr-tb" unicode-bidi="normal" text-decoration="none" transform="matrix(1 0 0 1 1845.79 855)">Fully Managed </text><text fill="#FFFFFF" fill-opacity="1" font-family="Oracle Sans,Oracle Sans_MSFontService,sans-serif" font-style="normal" font-variant="normal" font-weight="400" font-stretch="normal" font-size="37" text-anchor="start" direction="ltr" writing-mode="lr-tb" unicode-bidi="normal" text-decoration="none" transform="matrix(1 0 0 1 1954.35 899)">&amp; </text><text fill="#FFFFFF" fill-opacity="1" font-family="Oracle Sans,Oracle Sans_MSFontService,sans-serif" font-style="normal" font-variant="normal" font-weight="400" font-stretch="normal" font-size="37" text-anchor="start" direction="ltr" writing-mode="lr-tb" unicode-bidi="normal" text-decoration="none" transform="matrix(1 0 0 1 1860.39 943)">Open Source</text><g><g><g><path d="M243.49 142.274 238.715 142.274 238.715 138.646C238.715 128.333 230.026 120.217 218.854 120.217L216.753 120.217 216.753 114.297C220.382 110.859 222.483 105.99 222.483 100.929L222.483 86.8924C222.483 77.4392 216.944 71.6146 208.16 71.6146L183.333 71.6146 183.333 75.434C183.333 75.7205 183.333 75.9115 183.333 76.1979L183.333 100.26C183.333 105.417 185.434 110.382 189.062 114.01L189.062 120.312 186.198 120.312C185.816 120.312 185.434 120.312 185.052 120.408 186.389 122.795 187.439 125.373 188.108 127.951L192.595 127.951C195.556 130.148 199.089 131.293 202.812 131.389L202.908 131.389C206.632 131.389 210.26 130.148 213.22 127.951L218.854 127.951C224.87 127.951 231.076 131.962 231.076 138.741L231.076 142.37 183.333 142.37 183.333 135.877C183.238 124.514 175.885 114.488 165.095 111.05 167.196 108.95 169.01 106.562 170.443 103.984L171.207 102.648 160.417 59.1059 160.417 59.2014C157.934 51.467 150.964 45.8333 142.847 45.8333L132.153 45.8333C122.986 45.8333 115.347 52.8993 113.819 62.066L103.793 102.457 104.557 103.793C105.99 106.372 107.804 108.759 109.905 110.859 99.1146 114.297 91.7622 124.323 91.6667 135.686L91.6667 142.274 43.9236 142.274 43.9236 138.646C43.9236 131.866 50.1302 127.856 56.1458 127.856L61.7795 127.856C64.7396 130.052 68.3681 131.293 72.092 131.293L72.1875 131.293C75.816 131.293 79.4444 130.148 82.4045 127.951L86.8924 127.951C87.5608 125.278 88.6111 122.795 89.9479 120.408 89.566 120.408 89.184 120.312 88.8021 120.312L85.9375 120.312 85.9375 114.01C89.566 110.382 91.6667 105.417 91.6667 100.165L91.6667 72.5694 66.8403 72.5694C58.0556 72.5694 52.6128 78.2986 52.5174 87.6562L52.5174 101.024C52.5174 106.085 54.6181 110.955 58.2465 114.392L58.2465 120.312 56.1458 120.312C44.974 120.217 36.2847 128.333 36.2847 138.646L36.2847 142.274 31.5104 142.274 23.8715 146.094 23.8715 149.913 251.128 149.913 251.128 146.094 243.49 142.274ZM214.844 101.024C214.844 107.231 209.401 112.292 202.812 112.292 196.224 112.101 191.068 106.849 190.972 100.26L190.972 89.566C192.786 90.3299 194.696 90.7118 196.701 90.7118L214.844 90.7118 214.844 101.024ZM208.16 79.2535C209.592 79.2535 212.934 79.2535 214.271 83.0729L196.701 83.0729C194.219 83.3594 191.927 81.6406 191.45 79.2535L208.16 79.2535ZM202.812 123.655C200.616 123.655 198.42 122.891 196.701 121.458L196.701 118.88C198.611 119.549 200.712 119.931 202.812 119.931 205.009 119.931 207.109 119.549 209.115 118.88L209.115 121.363C207.396 122.891 205.2 123.75 202.812 123.655ZM72.1875 123.655C69.8958 123.655 67.6042 122.891 65.8854 121.363L65.8854 118.88C67.8906 119.549 70.0868 119.931 72.1875 119.931 74.2882 119.931 76.2934 119.549 78.2986 118.88L78.2986 121.458C76.5799 122.891 74.3837 123.655 72.1875 123.655ZM66.8403 80.2083 83.6458 80.2083C83.0729 82.5955 80.7812 84.2188 78.2986 84.0278L60.7292 84.0278C62.066 80.2083 65.408 80.2083 66.8403 80.2083ZM78.2986 91.6667C80.3038 91.6667 82.2135 91.2847 84.0278 90.5208L84.0278 100.26C84.0278 106.849 78.776 112.101 72.1875 112.292 65.5035 112.292 60.1562 107.231 60.1562 101.024L60.1562 91.6667 78.2986 91.6667ZM152.491 109.809 151.823 109.809 151.823 99.1146C155.451 96.25 158.22 92.3351 159.748 88.0382L163.09 101.311C160.703 105.321 156.979 108.281 152.491 109.809ZM121.267 73.0469C126.997 73.8108 132.821 72.283 137.5 68.8455 142.083 72.3785 148.003 73.9062 153.733 73.0469L153.733 78.8715C153.733 88.6111 146.476 96.5365 137.5 96.5365 128.524 96.5365 121.267 88.6111 121.267 78.8715L121.267 73.0469ZM130.816 103.22C135.208 104.557 139.792 104.557 144.184 103.22L144.184 114.679C144.184 117.83 140.938 120.599 137.5 120.599 134.062 120.599 130.816 117.734 130.816 114.679L130.816 103.22ZM132.153 53.4722 142.752 53.4722C148.767 53.4722 153.637 58.8194 153.637 65.3125 150.486 65.9809 145.33 65.8854 139.983 61.1111L137.405 58.724 134.826 61.1111C129.479 65.9809 124.227 65.9809 121.172 65.3125 121.172 64.7396 121.267 64.1667 121.267 63.5938L121.936 60.9201C123.464 56.6233 127.569 53.5677 132.153 53.4722ZM115.252 88.1337C116.875 92.4306 119.549 96.25 123.177 99.1146L123.177 109.809 122.509 109.809C118.116 108.281 114.392 105.321 112.005 101.311L115.252 88.1337ZM99.3056 142.274 99.3056 135.781C99.3056 125.851 107.422 117.448 116.97 117.448L123.559 117.448C125.66 125.182 133.585 129.766 141.224 127.665 146.189 126.328 150.104 122.413 151.441 117.448L158.03 117.448C167.578 117.448 175.694 125.851 175.694 135.781L175.694 142.274 99.3056 142.274ZM153.064 177.604 147.717 180.755C146.38 179.705 144.852 178.845 143.229 178.273L143.229 172.639 130.816 172.639 130.816 178.75C129.575 179.323 128.429 179.991 127.378 180.851L121.936 177.604 115.92 187.821 121.363 190.972C121.172 191.832 121.172 192.691 121.172 193.55 121.172 194.41 121.267 195.269 121.363 196.128L115.92 199.375 121.936 209.592 127.378 206.441C128.429 207.3 129.575 207.969 130.816 208.542L130.816 214.653 143.229 214.653 143.229 209.019C144.852 208.446 146.38 207.587 147.717 206.536L153.064 209.688 159.08 199.47 153.733 196.319C154.019 194.601 154.019 192.786 153.733 191.068L159.08 187.917 153.064 177.604ZM137.595 202.431C132.726 202.431 128.811 198.516 128.811 193.646 128.811 188.776 132.726 184.861 137.595 184.861 142.465 184.861 146.38 188.776 146.38 193.646 146.285 198.516 142.37 202.431 137.595 202.431ZM137.5 155.451C116.398 155.451 99.3056 172.543 99.3056 193.646 99.3056 214.748 116.398 231.84 137.5 231.84 158.602 231.84 175.694 214.748 175.694 193.646 175.694 172.543 158.602 155.451 137.5 155.451ZM137.5 224.201C120.599 224.201 106.944 210.547 106.944 193.646 106.944 176.745 120.599 163.09 137.5 163.09 154.401 163.09 168.056 176.745 168.056 193.646 168.056 210.547 154.401 224.201 137.5 224.201ZM75.434 155.642 67.7951 155.642 67.7951 176.458 92.4306 184.002 94.6267 176.649 75.434 170.729 75.434 155.642ZM199.566 170.729 180.278 176.554 182.474 183.906 207.109 176.363 207.109 155.642 199.47 155.642 199.47 170.729 199.566 170.729Z" fill="#FFFFFF" fill-rule="nonzero" fill-opacity="1" transform="matrix(1.0017 0 0 1 1846.77 557)"/></g></g></g><path d="M1162 742.5 1264 742.5 1264 730 1289 755 1264 780 1264 767.5 1162 767.5Z" fill="#7F7F7F" fill-rule="evenodd" fill-opacity="1"/><text fill="#FFFFFF" fill-opacity="1" font-family="Oracle Sans Tab,Oracle Sans Tab_MSFontService,sans-serif" font-style="normal" font-variant="normal" font-weight="400" font-stretch="normal" font-size="41" text-anchor="start" direction="ltr" writing-mode="lr-tb" unicode-bidi="normal" text-decoration="none" transform="matrix(1 0 0 1 838.078 879)">Car Booking</text><path d="M834 636C912.489 636 991.511 636 1070.53 636 1070.53 687.058 1070.53 738.115 1070.53 789.173 1040.63 789.173 1010.73 789.173 980.833 789.173 980.833 793.549 980.833 797.44 980.833 801.816 989.376 801.816 997.919 801.816 1007 801.816 1007 805.706 1007 809.11 1007 813 970.688 813 934.38 813 897.538 813 897.538 809.596 897.538 806.192 897.538 802.788 897.538 801.816 898.606 801.816 899.14 801.816 905.547 801.816 911.955 801.816 918.362 801.816 919.964 801.816 922.1 801.816 923.701 801.816 923.701 797.44 923.701 793.549 923.701 789.173 893.801 789.173 863.9 789.173 834 789.173 834 738.115 834 687.058 834 636ZM1051.31 653.992C1050.24 653.992 1050.24 653.992 1049.71 653.992 984.57 653.992 919.964 653.992 855.357 653.992 853.756 653.992 853.222 654.478 853.222 655.451 853.222 693.865 853.222 731.794 853.222 769.722 853.222 770.695 853.756 771.181 855.357 771.181 919.964 771.181 984.57 771.181 1049.18 771.181 1049.71 771.181 1050.24 771.181 1051.31 771.181 1051.31 732.28 1051.31 693.379 1051.31 653.992Z" fill="#FFFFFF" fill-rule="evenodd" fill-opacity="1"/><path d="M1010 682.412C1009.47 684.83 1008.94 687.249 1008.41 689.667 1006.29 698.856 1004.17 708.046 1002.06 716.752 1001 722.072 998.347 724.007 992.521 724.007 985.106 724.49 978.22 724.974 970.805 724.974 959.682 725.458 949.089 725.941 937.966 726.425 933.199 726.425 927.903 726.909 923.136 726.909 920.487 727.392 918.898 728.36 918.898 730.294 919.428 732.229 921.017 733.68 923.136 733.68 948.03 733.68 972.924 733.68 997.818 733.68 998.347 733.68 999.407 733.68 1000.47 734.164 1001.53 734.164 1002.58 735.614 1002.58 736.582 1002.06 738.033 1001 739 999.936 739 999.407 739 998.877 739 998.347 739 972.924 739 947.5 739 922.076 739 921.547 739 920.487 739 919.958 739 916.25 738.516 914.131 737.065 913.602 733.68 910.954 719.654 908.835 705.628 906.716 692.085 905.657 685.314 904.598 678.543 903.538 671.771 903.538 671.288 903.009 670.804 901.949 670.804 897.712 670.804 892.945 670.804 888.708 670.804 886.589 670.804 885 669.837 885 667.902 885 665.968 886.589 665 888.708 665 895.064 665 901.42 665 907.246 665 908.305 665 908.835 665 908.835 665.968 909.894 671.288 910.954 677.092 911.483 682.412 944.322 682.412 977.161 682.412 1010 682.412Z" fill="#FFFFFF" fill-rule="evenodd" fill-opacity="1"/><path d="M1008 752.243C1008 757.108 1003.03 761 997.5 761 991.421 761 987 757.108 987 751.757 987 746.892 991.421 743 997.5 743 1003.03 743 1008 746.892 1008 752.243Z" fill="#FFFFFF" fill-rule="evenodd" fill-opacity="1"/><path d="M927 752.474C927 757.211 922.79 761 917 761 911.211 761 907 756.737 907.526 752 907.526 747.263 911.737 743 917.526 743.474 922.79 743.474 927 747.263 927 752.474Z" fill="#FFFFFF" fill-rule="evenodd" fill-opacity="1"/><path d="M1308 614.21C1308 601.392 1318.39 591 1331.21 591L1678.79 591C1691.61 591 1702 601.392 1702 614.21L1702 943.79C1702 956.608 1691.61 967 1678.79 967L1331.21 967C1318.39 967 1308 956.608 1308 943.79Z" fill="#2F5597" fill-rule="evenodd" fill-opacity="1"/><rect x="1359" y="866" width="275" height="72.0002" fill="#BF9000" fill-opacity="1"/><text fill="#FFFFFF" fill-opacity="1" font-family="Oracle Sans Tab,Oracle Sans Tab_MSFontService,sans-serif" font-style="normal" font-variant="normal" font-weight="400" font-stretch="normal" font-size="32" text-anchor="start" direction="ltr" writing-mode="lr-tb" unicode-bidi="normal" text-decoration="none" transform="matrix(1 0 0 1 1424.72 911)">Relational</text><text fill="#FFFFFF" fill-opacity="1" font-family="Oracle Sans,Oracle Sans_MSFontService,sans-serif" font-style="normal" font-variant="normal" font-weight="400" font-stretch="normal" font-size="32" text-anchor="start" direction="ltr" writing-mode="lr-tb" unicode-bidi="normal" text-decoration="none" transform="matrix(1 0 0 1 1362.16 807)">OCI Database with </text><text fill="#FFFFFF" fill-opacity="1" font-family="Oracle Sans,Oracle Sans_MSFontService,sans-serif" font-style="normal" font-variant="normal" font-weight="400" font-stretch="normal" font-size="32" text-anchor="start" direction="ltr" writing-mode="lr-tb" unicode-bidi="normal" text-decoration="none" transform="matrix(1 0 0 1 1408.3 845)">PostgreSQL</text><path d="M1508.97 634.302C1521.66 634.302 1531.74 644.866 1531.74 657.411L1531.74 693.727C1539.22 695.378 1545.07 697.689 1545.07 701.981 1545.07 701.981 1545.07 701.981 1545.07 702.311 1545.07 702.311 1545.07 702.311 1545.07 702.311L1545.07 755.465 1545.07 755.795C1545.07 765.369 1515.8 765.699 1512.22 765.699 1508.97 765.699 1479.37 765.369 1479.37 755.795L1479.37 755.465 1479.37 750.842 1475.8 750.842C1475.47 759.096 1468.97 765.369 1460.84 765.369L1446.85 765.369C1436.77 765.369 1428.64 757.115 1428.64 746.88L1428.64 746.55 1428.64 741.928 1428.64 738.627C1428.64 738.627 1428.64 738.627 1428.31 738.627 1428.31 738.627 1427.99 738.627 1427.99 738.627 1427.99 738.627 1427.66 738.627 1427.66 738.627 1423.11 738.297 1418.88 737.637 1414.65 736.316 1417.58 736.646 1420.5 736.976 1423.11 736.976 1424.41 736.976 1426.03 736.976 1427.33 736.646 1427.66 736.646 1427.99 736.646 1428.31 736.646L1428.31 676.56C1428.64 653.45 1447.5 634.302 1470.59 634.302L1477.1 634.302C1480.02 634.302 1482.63 634.962 1485.23 636.282L1485.88 636.612C1488.48 634.962 1491.41 634.302 1494.33 634.302L1508.97 634.302M1508.97 631 1494.33 631C1491.41 631 1488.48 631.66 1485.88 632.651 1482.95 631.66 1480.02 631 1477.1 631L1470.59 631C1445.55 631 1425.38 651.469 1425.38 676.56L1425.38 733.675C1424.73 733.675 1424.08 733.675 1423.43 733.675 1420.83 733.675 1418.23 733.345 1415.3 733.015L1414 739.618C1417.9 740.938 1421.81 741.598 1425.38 741.928L1425.38 742.258 1425.38 746.55 1425.38 747.211C1425.38 759.426 1435.14 769 1446.85 769L1460.84 769C1467.67 769 1473.84 765.039 1476.77 759.096 1480.67 767.349 1499.86 769 1511.9 769 1525.23 769 1548 767.349 1548 755.795L1548 755.465 1548 702.641 1548 702.311C1548 697.359 1543.45 693.397 1534.67 691.417L1534.67 657.411C1534.99 642.885 1523.28 631 1508.97 631Z" fill="#FFFFFF" fill-rule="evenodd" fill-opacity="1"/><path d="M1432.94 676.24C1432.94 655.78 1449.72 638.95 1470.46 638.95L1477.04 638.95C1479.01 638.95 1481.32 639.28 1483.29 640.27L1486.25 641.59 1487.24 640.93C1489.22 639.61 1491.85 638.95 1494.15 638.95L1508.96 638.95C1519.16 638.95 1527.06 647.2 1527.06 657.1L1527.06 688.45C1528.71 688.78 1530.35 688.78 1532 689.11 1532 688.78 1532 688.78 1532 688.45L1532 657.1C1532 644.23 1521.47 634 1508.96 634L1494.15 634C1491.19 634 1488.23 634.66 1485.6 635.98L1484.94 635.65C1482.63 634.66 1479.67 634 1477.04 634L1470.46 634C1447.09 634 1428 653.14 1428 676.24L1428 733C1429.65 732.34 1431.29 732.01 1432.94 731.35L1432.94 676.24Z" fill="#FFFFFF" fill-rule="evenodd" fill-opacity="1"/><path d="M1466.6 733 1461.74 733C1459.79 733 1457.85 733.66 1456.55 734.65 1455.9 735.31 1455.26 735.97 1454.61 736.63 1453.63 737.95 1452.99 739.93 1452.99 741.91L1452.99 746.53 1457.85 746.53 1457.85 741.91C1457.85 739.6 1459.47 737.95 1461.74 737.95L1466.6 737.95C1469.19 737.95 1471.14 739.93 1471.14 742.57L1471.14 750.49C1471.14 756.1 1466.6 760.72 1461.09 760.72L1447.15 760.72C1439.7 760.72 1433.86 754.45 1433.86 747.19L1433.86 742.57C1432.24 742.57 1430.62 742.24 1429 742.24L1429 747.52C1429 757.75 1437.1 766 1447.15 766L1461.09 766C1469.19 766 1476 759.07 1476 750.82L1476 742.9C1476 737.29 1471.79 733 1466.6 733Z" fill="#FFFFFF" fill-rule="evenodd" fill-opacity="1"/><path d="M1461.62 719.17C1462.58 717.254 1461.62 715.34 1460.01 714.382 1458.08 713.424 1456.15 714.382 1455.19 715.978L1455.19 715.978 1453.9 718.531 1453.58 718.85 1453.26 719.489 1453.26 719.808 1453.26 720.127C1453.26 720.127 1453.26 720.446 1453.26 720.446 1452.94 720.765 1452.94 721.084 1452.61 721.723 1451.65 723.319 1450.36 724.914 1449.08 726.51 1446.51 729.383 1443.29 731.936 1439.43 733.532 1437.5 734.489 1435.57 735.128 1433.65 735.447 1431.72 736.085 1429.47 736.404 1427.54 736.404 1423.36 736.723 1419.18 736.723 1415 735.766 1419.18 737.043 1423.36 737.681 1427.86 738 1430.11 738 1432.36 738 1434.61 737.681 1436.86 737.362 1439.11 737.043 1441.04 736.404 1445.22 735.128 1449.4 732.893 1452.94 730.021 1454.86 728.425 1456.47 726.829 1457.76 724.914 1458.08 724.595 1458.4 723.957 1458.72 723.319L1459.04 723.319 1459.04 722.999 1459.04 722.68 1459.37 722.042 1459.69 721.723 1461.29 719.489C1461.62 719.489 1461.62 719.17 1461.62 719.17Z" fill="#FFFFFF" fill-rule="evenodd" fill-opacity="1"/><path d="M1451.8 675.333C1450.6 676.334 1450 678.333 1450 680 1450 681 1450.3 681.334 1450.6 682 1450.6 682.334 1450.9 682.667 1451.2 683 1451.5 683.333 1451.5 683.667 1451.8 684 1452.1 683.667 1452.1 683.333 1452.4 683 1452.7 682.667 1452.7 682.334 1453 682 1453.3 681.334 1453.6 680.667 1453.6 680.667 1453.9 680 1454.5 679.667 1454.8 679.333 1455.1 679 1455.4 678.667 1456 678.333 1456.9 678 1458.1 677.334 1459 676.334 1458.1 675.333 1456.9 674.667 1456 674.333 1454.5 673.667 1453 674 1451.8 675.333Z" fill="#FFFFFF" fill-rule="evenodd" fill-opacity="1"/><path d="M1545 755.759 1545 702.572C1545 702.572 1545 702.572 1545 702.572 1545 702.572 1545 702.572 1545 702.241 1545 694.313 1524.42 692 1512 692 1499.58 692 1479 693.982 1479 702.241 1479 702.241 1479 702.241 1479 702.572 1479 702.572 1479 702.572 1479 702.572L1479 755.759 1479 756.089C1479 765.669 1508.41 766 1512 766 1515.59 765.669 1545 765.339 1545 755.759ZM1540.1 755.759C1538.79 757.741 1528.66 760.714 1512 760.714 1495.34 760.714 1485.21 757.411 1483.9 755.759L1483.9 744.196C1492.4 748.161 1509.39 748.491 1512 748.491 1514.61 748.491 1531.6 748.491 1540.1 744.196L1540.1 755.759ZM1512 712.152C1520.5 712.152 1533.24 711.161 1540.1 707.857L1540.1 720.08C1538.79 722.062 1528.66 725.036 1512 725.036 1495.34 725.036 1485.21 721.732 1483.9 720.08L1483.9 707.857C1491.09 711.161 1503.51 712.152 1512 712.152ZM1540.1 702.241C1538.79 704.223 1528.99 707.527 1512.33 707.527 1495.66 707.527 1485.53 704.223 1484.55 702.241 1485.86 700.259 1495.66 696.955 1512.33 696.955 1528.99 696.955 1538.79 700.259 1540.1 702.241ZM1512 730.321C1514.61 730.321 1531.6 730.321 1540.1 726.027L1540.1 738.25C1538.79 740.232 1528.66 743.205 1512 743.205 1495.34 743.205 1485.21 739.902 1483.9 738.25L1483.9 726.027C1492.72 729.991 1509.71 730.321 1512 730.321Z" fill="#FFFFFF" fill-rule="evenodd" fill-opacity="1"/><text fill="#FFFFFF" fill-opacity="1" font-family="Oracle Sans,Oracle Sans_MSFontService,sans-serif" font-style="normal" font-variant="normal" font-weight="400" font-stretch="normal" font-size="37" text-anchor="start" direction="ltr" writing-mode="lr-tb" unicode-bidi="normal" text-decoration="none" transform="matrix(1 0 0 1 2920.19 850)">High </text><text fill="#FFFFFF" fill-opacity="1" font-family="Oracle Sans,Oracle Sans_MSFontService,sans-serif" font-style="normal" font-variant="normal" font-weight="400" font-stretch="normal" font-size="37" text-anchor="start" direction="ltr" writing-mode="lr-tb" unicode-bidi="normal" text-decoration="none" transform="matrix(1 0 0 1 2867.76 894)">Replication </text><text fill="#FFFFFF" fill-opacity="1" font-family="Oracle Sans,Oracle Sans_MSFontService,sans-serif" font-style="normal" font-variant="normal" font-weight="400" font-stretch="normal" font-size="37" text-anchor="start" direction="ltr" writing-mode="lr-tb" unicode-bidi="normal" text-decoration="none" transform="matrix(1 0 0 1 2879.52 938)">Efficiency</text><path d="M2918.38 683.889C2918.38 670.556 2929.03 659.445 2941.82 659.445L2945.65 659.445 2937.55 668.334 2942.23 672.778 2958 655.889 2942.23 639 2937.55 643.445 2946.06 652.334 2941.82 652.334C2925.2 652.334 2912 666.111 2912 683.445L2912 691 2918.38 691 2918.38 683.889Z" fill="#FFFFFF" fill-rule="evenodd" fill-opacity="1"/><path d="M2879.14 786 2951.83 786C2954.41 786 2957 783.792 2957 780.697L2957 710 2874 710 2874 781.14C2874 783.792 2876.13 786 2879.14 786ZM2950.53 779.373 2880.44 779.373 2880.44 716.628 2950.53 716.628 2950.53 779.373Z" fill="#FFFFFF" fill-rule="evenodd" fill-opacity="1"/><path d="M2956.14 698.25C2955.29 696.9 2953.99 696 2952.69 696L2952.27 696 2878.73 696 2878.29 696C2875.71 696.45 2874 698.7 2874 701.4L2874 705 2957 705 2957 701.4C2957 700.5 2957 699.15 2956.14 698.25Z" fill="#FFFFFF" fill-rule="evenodd" fill-opacity="1"/><path d="M2946 734.671C2946 731.613 2943.83 729.429 2940.83 729.429L2913.13 729.429 2910.1 724.62C2909.24 722.874 2907.49 722 2905.35 722L2890.2 722C2887.17 722 2885 724.184 2885 727.242L2885 774 2946 774 2946 734.671ZM2939.52 767.446 2891.5 767.446 2891.5 728.554 2904.91 728.554 2909.66 735.983 2939.52 735.983 2939.52 767.446Z" fill="#FFFFFF" fill-rule="evenodd" fill-opacity="1"/><path d="M2968.14 699 3040.83 699C3043.41 699 3046 696.803 3046 693.728L3046 623 2963 623 2963 693.728C2963 696.364 2965.57 699 2968.14 699ZM3039.54 692.41 2969.44 692.41 2969.44 629.59 3039.54 629.59 3039.54 692.41Z" fill="#FFFFFF" fill-rule="evenodd" fill-opacity="1"/><path d="M3045.56 611.7C3044.7 610.35 3043.41 609.45 3041.69 609L2967.73 609 2967.29 609C2964.71 609.45 2963 611.7 2963 614.4L2963 618 3046 618 3046 614.85C3046 613.5 3046 612.6 3045.56 611.7Z" fill="#FFFFFF" fill-rule="evenodd" fill-opacity="1"/><path d="M3034 647.916C3034 644.798 3031.87 642.571 3028.91 642.571L3001.67 642.571 2998.69 637.672C2997.84 635.89 2996.12 635 2994.02 635L2979.11 635C2976.13 635 2974 637.227 2974 640.344L2974 688 3034 688 3034 647.916ZM3027.63 681.319 2980.4 681.319 2980.4 641.681 2993.58 641.681 2998.26 649.252 3027.63 649.252 3027.63 681.319Z" fill="#FFFFFF" fill-rule="evenodd" fill-opacity="1"/><text fill="#FFFFFF" fill-opacity="1" font-family="Oracle Sans,Oracle Sans_MSFontService,sans-serif" font-style="normal" font-variant="normal" font-weight="400" font-stretch="normal" font-size="37" text-anchor="start" direction="ltr" writing-mode="lr-tb" unicode-bidi="normal" text-decoration="none" transform="matrix(1 0 0 1 2186.1 847)">Zero Recovery </text><text fill="#FFFFFF" fill-opacity="1" font-family="Oracle Sans,Oracle Sans_MSFontService,sans-serif" font-style="normal" font-variant="normal" font-weight="400" font-stretch="normal" font-size="37" text-anchor="start" direction="ltr" writing-mode="lr-tb" unicode-bidi="normal" text-decoration="none" transform="matrix(1 0 0 1 2262.02 891)">Point </text><text fill="#FFFFFF" fill-opacity="1" font-family="Oracle Sans,Oracle Sans_MSFontService,sans-serif" font-style="normal" font-variant="normal" font-weight="400" font-stretch="normal" font-size="37" text-anchor="start" direction="ltr" writing-mode="lr-tb" unicode-bidi="normal" text-decoration="none" transform="matrix(1 0 0 1 2227.92 935)">Objective</text><path d="M2297.91 711 2278 678.063 2290.67 678.063 2282.84 658 2290.8 658 2312 690.937 2299.02 690.937 2305.74 711 2297.91 711Z" fill="#FFFFFF" fill-rule="evenodd" fill-opacity="1"/><path d="M2290.05 660.486 2301.3 678.079 2308.02 688.677 2296.28 688.677 2302.87 708.557 2299.47 708.557 2286.38 687.095 2282.33 680.321 2294.1 680.321 2293.19 677.991 2286.43 660.398 2289.87 660.398M2292.23 656 2280.23 656 2282.55 661.982 2288.08 675.968 2275 675.968 2279.01 682.653 2283.07 689.425 2295.94 710.887 2297.2 713 2309.11 713 2307.23 707.239 2302.57 693.119 2316 693.119 2311.64 686.347 2304.92 675.747 2293.67 658.154 2292.45 656.088 2292.23 656Z" fill="#FFFFFF" fill-rule="evenodd" fill-opacity="1"/><path d="M2282 679.831 2286.13 686.589 2299.29 708 2302.76 708 2296.04 688.17 2308 688.17 2301.15 677.594 2289.69 660 2286.18 660 2293.07 677.507 2294 679.831 2282 679.831Z" fill="#FFFFFF" fill-rule="evenodd" fill-opacity="1"/><path d="M2318.48 748.132 2318.48 734.604C2321.33 735.843 2324.3 736.779 2327.35 737.398L2327.35 736.555C2327.35 734.653 2327.77 732.773 2328.59 731.055 2324.97 730.508 2321.51 729.159 2318.48 727.108L2318.48 711.847C2325.95 715.622 2334.24 717.497 2342.61 717.303 2350.91 717.459 2359.12 715.587 2366.52 711.847L2366.52 723.912 2373 723.912 2373 702.977C2373 699.339 2371.09 694.104 2361.29 691L2355.92 696.412C2362.09 697.609 2366.52 699.738 2366.52 702.977 2366.52 705.238 2357.16 710.65 2342.39 710.65 2327.62 710.65 2318.48 705.194 2318.48 702.977 2318.48 700.76 2322.69 698.054 2329.57 696.545L2324.29 691.265C2317.46 693.352 2312 696.987 2312 702.977L2312 748.532C2312 752.969 2318.7 756.872 2327.35 759L2327.35 752.303C2324.11 751.609 2321.08 750.183 2318.48 748.132Z" fill="#FFFFFF" fill-rule="evenodd" fill-opacity="1"/><path d="M2260.75 696.392C2269.6 697.268 2276.59 699.589 2276.59 703.616 2276.59 705.848 2267.25 711.19 2252.52 711.19 2237.79 711.19 2228.46 705.848 2228.46 703.66 2228.46 701.472 2234.83 697.617 2244.65 696.479L2244.65 690.044C2234.03 691.181 2222 694.903 2222 703.66L2222 748.625C2222 753.003 2228.77 756.899 2237.48 759L2237.48 752.389C2234.23 751.633 2231.2 750.135 2228.64 748.011L2228.64 734.877C2231.47 736.125 2234.44 737.051 2237.48 737.635L2237.48 736.803C2237.49 734.944 2237.9 733.109 2238.68 731.417 2235.01 730.88 2231.52 729.533 2228.46 727.478L2228.46 712.415C2235.94 716.047 2244.2 717.819 2252.52 717.582 2260.85 717.815 2269.11 716.042 2276.59 712.415L2276.59 724.281 2283 724.281 2283 703.66C2283 699.019 2279.9 691.62 2260.88 690 2260.88 690.482 2260.88 690.963 2260.88 691.446L2260.75 696.392Z" fill="#FFFFFF" fill-rule="evenodd" fill-opacity="1"/><path d="M2230.14 669.511C2230.97 665.329 2232.73 661.389 2235.29 657.98 2237.84 654.571 2241.14 651.784 2244.92 649.823 2247.18 648.616 2249.14 646.919 2250.67 644.859 2252.19 642.797 2253.24 640.423 2253.73 637.907 2254.68 633.061 2257.39 628.742 2261.35 625.796 2265.3 622.848 2270.22 621.484 2275.12 621.97 2277.68 622.241 2280.27 621.912 2282.68 621.008 2285.09 620.105 2287.26 618.651 2289.01 616.763 2291.89 613.662 2295.47 611.305 2299.45 609.894 2303.44 608.48 2307.7 608.056 2311.88 608.654 2316.07 609.255 2320.04 610.858 2323.47 613.331 2326.9 615.804 2329.68 619.071 2331.57 622.853 2332.72 625.177 2334.39 627.212 2336.43 628.809 2338.48 630.403 2340.85 631.522 2343.38 632.078 2346.41 632.748 2349.31 633.928 2351.94 635.566 2357.43 639.052 2361.49 644.403 2363.36 650.636 2365.23 656.872 2364.79 663.572 2362.12 669.511L2345.72 669.511C2346.65 671.606 2347.45 673.76 2348.1 675.956L2366.09 675.956 2367.02 674.279C2369.46 669.73 2370.81 664.682 2370.98 659.524 2371.15 654.365 2370.13 649.239 2368 644.542 2365.86 639.842 2362.68 635.701 2358.68 632.438 2354.69 629.173 2350 626.876 2344.97 625.724 2343.37 625.386 2341.87 624.691 2340.58 623.689 2339.29 622.686 2338.24 621.405 2337.52 619.94 2335.15 615.252 2331.7 611.206 2327.44 608.14 2323.18 605.076 2318.24 603.083 2313.05 602.335 2307.85 601.584 2302.56 602.101 2297.61 603.836 2292.66 605.572 2288.2 608.476 2284.6 612.304 2283.52 613.477 2282.18 614.381 2280.69 614.939 2279.19 615.5 2277.59 615.701 2276 615.528 2271.56 615.099 2267.08 615.829 2263 617.646 2259.13 619.361 2255.73 621.982 2253.08 625.284 2250.44 628.586 2248.62 632.475 2247.78 636.625 2247.48 638.203 2246.82 639.689 2245.86 640.975 2244.9 642.259 2243.65 643.309 2242.23 644.041 2236.89 646.766 2232.34 650.822 2229.02 655.816 2225.7 660.81 2223.72 666.575 2223.27 672.557L2223 676 2246.11 676C2246.76 673.804 2247.56 671.651 2248.49 669.556L2230.14 669.511Z" fill="#FFFFFF" fill-rule="evenodd" fill-opacity="1"/><path d="M2358 687.057 2353.6 682.665 2345.47 690.747C2344.57 678.583 2339.09 667.211 2330.15 658.912 2321.2 650.614 2309.45 646 2297.23 646 2285.03 646 2273.27 650.614 2264.32 658.912 2255.37 667.211 2249.9 678.583 2249 690.747L2249 698.61 2255.42 698.61 2255.42 690.703C2255.91 679.969 2260.53 669.835 2268.31 662.415 2276.09 654.993 2286.43 650.849 2297.19 650.849 2307.95 650.849 2318.29 654.993 2326.07 662.415 2333.85 669.835 2338.47 679.969 2338.96 690.703L2330.83 682.577 2326.43 686.97 2342.3 703 2358 687.057Z" fill="#FFFFFF" fill-rule="evenodd" fill-opacity="1"/><path d="M2371.63 752 2365.11 758.313 2362.41 755.644 2358 760.009 2365.11 767 2376 756.407 2371.63 752Z" fill="#FFFFFF" fill-rule="evenodd" fill-opacity="1"/><path d="M2381.06 729.001 2340.02 729.001C2338.98 728.985 2337.93 729.175 2336.96 729.562 2335.99 729.949 2335.1 730.524 2334.36 731.255 2333.61 731.986 2333.02 732.859 2332.61 733.818 2332.21 734.78 2332 735.813 2332 736.855L2332 770.231C2332 771.269 2332.22 772.292 2332.63 773.248 2333.03 774.2 2333.63 775.064 2334.38 775.788 2335.12 776.512 2336.01 777.078 2336.98 777.458 2337.95 777.838 2338.98 778.021 2340.02 777.998L2381.06 777.998C2382.1 778.014 2383.13 777.826 2384.09 777.444 2385.05 777.061 2385.93 776.493 2386.67 775.77 2387.41 775.046 2387.99 774.184 2388.39 773.234 2388.79 772.283 2389 771.262 2389 770.231L2389 736.855C2389.01 735.818 2388.8 734.791 2388.41 733.832 2388.01 732.874 2387.43 732.004 2386.69 731.273 2385.95 730.543 2385.07 729.965 2384.11 729.576 2383.14 729.184 2382.11 728.99 2381.06 729.001ZM2340.02 771.628C2339.84 771.633 2339.65 771.601 2339.47 771.534 2339.3 771.465 2339.14 771.365 2339 771.234 2338.87 771.104 2338.76 770.948 2338.69 770.776 2338.61 770.604 2338.58 770.419 2338.58 770.231L2338.58 746.496 2345.15 746.496 2345.15 771.628 2340.02 771.628ZM2382.47 770.231C2382.47 770.602 2382.32 770.957 2382.06 771.218 2381.79 771.479 2381.44 771.628 2381.06 771.628L2351.38 771.628 2351.38 746.496 2382.47 746.496 2382.47 770.231ZM2382.47 740.126 2338.62 740.126 2338.62 736.855C2338.62 736.464 2338.77 736.088 2339.04 735.804 2339.31 735.52 2339.68 735.35 2340.07 735.328L2381.11 735.328C2381.49 735.36 2381.85 735.536 2382.11 735.818 2382.37 736.102 2382.51 736.471 2382.51 736.855L2382.47 740.126Z" fill="#FFFFFF" fill-rule="evenodd" fill-opacity="1"/><path d="M2249.85 729C2248.81 729.005 2247.79 729.213 2246.83 729.612 2245.87 730.008 2245.01 730.588 2244.28 731.318 2243.55 732.047 2242.97 732.911 2242.58 733.861 2242.19 734.812 2241.99 735.829 2242 736.853L2242 770.234C2242 772.294 2242.83 774.268 2244.3 775.725 2245.77 777.182 2247.77 778 2249.85 778L2291.11 778C2293.2 778 2295.2 777.185 2296.67 775.728 2298.15 774.273 2298.99 772.298 2299 770.234L2299 736.853C2299 734.777 2298.17 732.787 2296.69 731.316 2295.21 729.843 2293.21 729.012 2291.11 729L2249.85 729ZM2249.85 771.629C2249.47 771.629 2249.11 771.483 2248.85 771.222 2248.58 770.958 2248.44 770.603 2248.44 770.234L2248.44 746.497 2254.87 746.497 2254.87 771.629 2249.85 771.629ZM2292.56 770.234C2292.56 770.42 2292.53 770.605 2292.45 770.777 2292.38 770.951 2292.27 771.107 2292.14 771.238 2292 771.366 2291.84 771.469 2291.66 771.535 2291.49 771.604 2291.3 771.636 2291.11 771.629L2261.44 771.629 2261.44 746.497 2292.7 746.497 2292.56 770.234ZM2291.11 735.327C2291.5 735.348 2291.87 735.52 2292.15 735.804 2292.42 736.088 2292.57 736.464 2292.56 736.853L2292.56 740.127 2248.48 740.127 2248.48 736.853C2248.48 736.47 2248.62 736.099 2248.88 735.818 2249.14 735.534 2249.51 735.359 2249.89 735.327L2291.11 735.327Z" fill="#FFFFFF" fill-rule="evenodd" fill-opacity="1"/></g></g></svg>